<svg xmlns="http://www.w3.org/2000/svg" xmlns:xlink="http://www.w3.org/1999/xlink" width="947.55" height="514.82" viewBox="0 0 947.55 514.82">
  <defs>
    <linearGradient id="linear-gradient" y1="0.5" x2="1" y2="0.5" gradientUnits="objectBoundingBox">
      <stop offset="0" stop-color="#8cd9d6"/>
      <stop offset="1" stop-color="#388e87"/>
    </linearGradient>
    <linearGradient id="linear-gradient-2" y1="0.5" x2="1.001" y2="0.5" gradientUnits="objectBoundingBox">
      <stop offset="0" stop-color="#ecb9b8"/>
      <stop offset="1" stop-color="#e5908c"/>
    </linearGradient>
    <linearGradient id="linear-gradient-3" y1="0.5" x2="1.001" y2="0.5" gradientUnits="objectBoundingBox">
      <stop offset="0" stop-color="#e5908c"/>
      <stop offset="1" stop-color="#df6f63"/>
    </linearGradient>
    <linearGradient id="linear-gradient-4" x1="-0.001" y1="0.5" x2="1" y2="0.5" xlink:href="#linear-gradient-3"/>
    <linearGradient id="linear-gradient-7" x1="-48.727" y1="0.5" x2="-47.726" y2="0.5" xlink:href="#linear-gradient-2"/>
    <linearGradient id="linear-gradient-8" x1="-47.24" y1="0.5" x2="-46.24" y2="0.5" xlink:href="#linear-gradient-3"/>
    <linearGradient id="linear-gradient-9" x1="-58.62" y1="0.5" x2="-57.62" y2="0.5" xlink:href="#linear-gradient-3"/>
    <linearGradient id="linear-gradient-10" x1="-57.977" y1="0.5" x2="-56.977" y2="0.5" xlink:href="#linear-gradient-3"/>
    <linearGradient id="linear-gradient-11" x1="-48.828" y1="0.5" x2="-47.827" y2="0.5" xlink:href="#linear-gradient-2"/>
    <radialGradient id="radial-gradient" cx="0.088" cy="0.032" r="1.445" gradientTransform="translate(0)" gradientUnits="objectBoundingBox">
      <stop offset="0.04" stop-color="#d8d9dd"/>
      <stop offset="0.55" stop-color="#edeef0"/>
      <stop offset="1" stop-color="#f7f7f8"/>
    </radialGradient>
    <radialGradient id="radial-gradient-2" cx="0.088" cy="0.032" r="1.445" xlink:href="#radial-gradient"/>
    <radialGradient id="radial-gradient-3" cx="0.088" cy="0.032" r="1.445" gradientTransform="translate(0)" gradientUnits="objectBoundingBox">
      <stop offset="0" stop-color="#f7f7f8"/>
      <stop offset="0.51" stop-color="#fbfbfb"/>
      <stop offset="0.72" stop-color="#fff"/>
    </radialGradient>
    <linearGradient id="linear-gradient-13" x1="-11.162" y1="0.5" x2="-10.161" y2="0.5" xlink:href="#linear-gradient-3"/>
    <linearGradient id="linear-gradient-14" x1="-6.014" y1="8.147" x2="-5.013" y2="8.147" xlink:href="#linear-gradient-3"/>
  </defs>
  <g id="Grupo_61694" data-name="Grupo 61694" transform="translate(-310.29 -1630.24)">
    <path id="Trazado_144507" data-name="Trazado 144507" d="M202.4,0C314.182,0,404.8,90.618,404.8,202.4S314.182,404.8,202.4,404.8,0,314.182,0,202.4,90.618,0,202.4,0Z" transform="translate(583.77 1673.63)" fill="url(#linear-gradient)"/>
    <path id="Trazado_144511" data-name="Trazado 144511" d="M9.61,0A9.61,9.61,0,1,1,0,9.61,9.61,9.61,0,0,1,9.61,0Z" transform="translate(943.86 1798.07)" fill="#fff"/>
    <path id="Trazado_144503" data-name="Trazado 144503" d="M0,0H107.74" transform="translate(963.09 1807.68)" fill="none" stroke="#e8b4b1" stroke-width="2"/>
    <path id="Trazado_144516" data-name="Trazado 144516" d="M9.61,0A9.61,9.61,0,1,1,0,9.61,9.61,9.61,0,0,1,9.61,0Z" transform="translate(944.49 1941.141)" fill="#fff"/>
    <path id="Trazado_144519" data-name="Trazado 144519" d="M6.22,0A6.22,6.22,0,1,1,0,6.22,6.22,6.22,0,0,1,6.22,0Z" transform="translate(947.88 1944.61)" fill="url(#linear-gradient-2)"/>
    <path id="Trazado_144520" data-name="Trazado 144520" d="M0,0H114.01" transform="translate(960.33 1950.83)" fill="none" stroke="#e8b4b1" stroke-width="2"/>
    <path id="Trazado_144508" data-name="Trazado 144508" d="M9.61,0A9.61,9.61,0,1,1,0,9.61,9.61,9.61,0,0,1,9.61,0Z" transform="translate(953.74 1870.641)" fill="#fff"/>
    <path id="Trazado_144509" data-name="Trazado 144509" d="M6.22,0A6.22,6.22,0,1,1,0,6.22,6.22,6.22,0,0,1,6.22,0Z" transform="translate(957.13 1874.12)" fill="url(#linear-gradient-3)"/>
    <path id="Trazado_144505" data-name="Trazado 144505" d="M0,0H114.01" transform="translate(969.58 1880.34)" fill="none" stroke="#e8b4b1" stroke-width="2"/>
    <path id="Trazado_144517" data-name="Trazado 144517" d="M9.61,0A9.61,9.61,0,1,1,0,9.61,9.61,9.61,0,0,1,9.61,0Z" transform="translate(882.96 1717.301)" fill="#fff"/>
    <path id="Trazado_144518" data-name="Trazado 144518" d="M6.22,0A6.22,6.22,0,1,1,0,6.22,6.22,6.22,0,0,1,6.22,0Z" transform="translate(886.35 1720.771)" fill="url(#linear-gradient-4)"/>
    <path id="Trazado_144506" data-name="Trazado 144506" d="M0,0H114.02" transform="translate(898.79 1726.99)" fill="none" stroke="#e8b4b1" stroke-width="2"/>
    <path id="Trazado_144523" data-name="Trazado 144523" d="M9.61,0A9.61,9.61,0,1,1,0,9.61,9.61,9.61,0,0,1,9.61,0Z" transform="translate(886.96 2018.11)" fill="#fff"/>
    <path id="Trazado_144524" data-name="Trazado 144524" d="M6.22,0A6.22,6.22,0,1,1,0,6.22,6.22,6.22,0,0,1,6.22,0Z" transform="translate(890.35 2021.58)" fill="url(#linear-gradient-4)"/>
    <path id="Trazado_144529" data-name="Trazado 144529" d="M0,0H114.02" transform="translate(902.79 2027.801)" fill="none" stroke="#e8b4b1" stroke-width="2"/>
    <path id="Trazado_144512" data-name="Trazado 144512" d="M6.22,0A6.22,6.22,0,1,1,0,6.22,6.22,6.22,0,0,1,6.22,0Z" transform="translate(947.25 1801.46)" fill="url(#linear-gradient-2)"/>
    <path id="Trazado_141256" data-name="Trazado 141256" d="M862.24,122.26H731.71a25.51,25.51,0,0,1-25.5-25.51h0a25.51,25.51,0,0,1,25.5-25.51H862.24a25.51,25.51,0,0,1,25.51,25.51h0a25.51,25.51,0,0,1-25.51,25.51Z" transform="translate(300.93 1630.24)" fill="#eef3ff"/>
    <path id="Trazado_144501" data-name="Trazado 144501" d="M10.327-11.417H6.214V0H4.535V-11.417H.431V-12.8h9.9Zm4.861,3.366a4.873,4.873,0,0,0-.8-.062A2.143,2.143,0,0,0,12.217-6.75V0H10.592V-9.51h1.582l.026,1.1a2.532,2.532,0,0,1,2.268-1.274,1.661,1.661,0,0,1,.721.123ZM21.842,0a3.415,3.415,0,0,1-.229-1A3.628,3.628,0,0,1,18.906.176,3.357,3.357,0,0,1,16.6-.62a2.573,2.573,0,0,1-.9-2.017,2.688,2.688,0,0,1,1.129-2.307A5.325,5.325,0,0,1,20-5.766h1.582v-.747a1.826,1.826,0,0,0-.51-1.358,2.049,2.049,0,0,0-1.5-.505,2.371,2.371,0,0,0-1.459.439,1.3,1.3,0,0,0-.589,1.063H15.892A2.244,2.244,0,0,1,16.4-8.249,3.449,3.449,0,0,1,17.768-9.3a4.613,4.613,0,0,1,1.9-.387,3.759,3.759,0,0,1,2.575.822A2.964,2.964,0,0,1,23.213-6.6v4.377a5.351,5.351,0,0,0,.334,2.083V0Zm-2.7-1.239a2.858,2.858,0,0,0,1.45-.4,2.392,2.392,0,0,0,.993-1.028V-4.614H20.313q-2.988,0-2.988,1.749a1.48,1.48,0,0,0,.51,1.2A1.959,1.959,0,0,0,19.144-1.239Zm14.669-3.41a5.654,5.654,0,0,1-1,3.5A3.2,3.2,0,0,1,30.121.176,3.315,3.315,0,0,1,27.335-1.1L27.256,0H25.762V-13.5h1.626v5.036A3.3,3.3,0,0,1,30.1-9.686a3.221,3.221,0,0,1,2.72,1.31,5.824,5.824,0,0,1,.989,3.586Zm-1.626-.185A4.394,4.394,0,0,0,31.545-7.4,2.124,2.124,0,0,0,29.7-8.306a2.387,2.387,0,0,0-2.312,1.494V-2.7A2.454,2.454,0,0,0,29.717-1.2a2.112,2.112,0,0,0,1.819-.905A4.672,4.672,0,0,0,32.187-4.834ZM41.732,0A3.416,3.416,0,0,1,41.5-1,3.628,3.628,0,0,1,38.8.176a3.357,3.357,0,0,1-2.307-.8,2.573,2.573,0,0,1-.9-2.017,2.688,2.688,0,0,1,1.129-2.307,5.325,5.325,0,0,1,3.177-.822h1.582v-.747a1.826,1.826,0,0,0-.51-1.358,2.049,2.049,0,0,0-1.5-.505A2.371,2.371,0,0,0,38-7.937a1.3,1.3,0,0,0-.589,1.063H35.781a2.244,2.244,0,0,1,.505-1.375A3.449,3.449,0,0,1,37.658-9.3a4.613,4.613,0,0,1,1.9-.387,3.759,3.759,0,0,1,2.575.822A2.964,2.964,0,0,1,43.1-6.6v4.377a5.351,5.351,0,0,0,.334,2.083V0Zm-2.7-1.239a2.858,2.858,0,0,0,1.45-.4,2.392,2.392,0,0,0,.993-1.028V-4.614H40.2q-2.988,0-2.988,1.749a1.48,1.48,0,0,0,.51,1.2A1.959,1.959,0,0,0,39.033-1.239Zm8.3-8.271V1.1q0,2.742-2.487,2.742a3.034,3.034,0,0,1-.993-.157V2.391a3.144,3.144,0,0,0,.738.07,1.1,1.1,0,0,0,.831-.295A1.457,1.457,0,0,0,45.7,1.142V-9.51Zm-1.793-2.522a.975.975,0,0,1,.242-.664.889.889,0,0,1,.708-.277.922.922,0,0,1,.721.272.96.96,0,0,1,.246.668.929.929,0,0,1-.246.659.938.938,0,0,1-.721.264.909.909,0,0,1-.712-.264A.949.949,0,0,1,45.537-12.032Zm3.981,7.189a5.617,5.617,0,0,1,.549-2.514A4.1,4.1,0,0,1,51.6-9.079a4.163,4.163,0,0,1,2.237-.606,4.01,4.01,0,0,1,3.142,1.345,5.174,5.174,0,0,1,1.2,3.577v.114a5.666,5.666,0,0,1-.532,2.492A4.038,4.038,0,0,1,56.124-.439a4.211,4.211,0,0,1-2.272.615,4,4,0,0,1-3.133-1.345,5.147,5.147,0,0,1-1.2-3.56Zm1.635.193a4.068,4.068,0,0,0,.734,2.54,2.349,2.349,0,0,0,1.964.958,2.335,2.335,0,0,0,1.969-.971,4.449,4.449,0,0,0,.729-2.72,4.061,4.061,0,0,0-.743-2.536,2.361,2.361,0,0,0-1.973-.971,2.335,2.335,0,0,0-1.942.958A4.416,4.416,0,0,0,51.153-4.649ZM68.617.176a4.155,4.155,0,0,1-3.146-1.27,4.714,4.714,0,0,1-1.213-3.4v-.3A5.707,5.707,0,0,1,64.8-7.317a4.217,4.217,0,0,1,1.512-1.74,3.8,3.8,0,0,1,2.1-.628A3.562,3.562,0,0,1,71.3-8.464a5.289,5.289,0,0,1,1.028,3.5v.677H65.884a3.38,3.38,0,0,0,.822,2.272,2.583,2.583,0,0,0,2,.866A2.832,2.832,0,0,0,70.164-1.5a3.666,3.666,0,0,0,1.046-.932l.993.773A3.993,3.993,0,0,1,68.617.176Zm-.2-8.525a2.169,2.169,0,0,0-1.652.716,3.482,3.482,0,0,0-.826,2.008H70.7v-.123a3.1,3.1,0,0,0-.668-1.92A2.042,2.042,0,0,0,68.415-8.35Zm7.33-1.16.053,1.2a3.465,3.465,0,0,1,2.848-1.371q3.015,0,3.041,3.4V0H80.061V-6.293a2.189,2.189,0,0,0-.47-1.521,1.884,1.884,0,0,0-1.437-.492,2.347,2.347,0,0,0-1.389.422,2.865,2.865,0,0,0-.932,1.107V0H74.207V-9.51ZM9.264,13.351a5.694,5.694,0,0,1-.993,3.5,3.183,3.183,0,0,1-2.689,1.327,3.488,3.488,0,0,1-2.725-1.1v4.579H1.23V8.49H2.716l.079,1.055a3.35,3.35,0,0,1,2.76-1.23A3.243,3.243,0,0,1,8.266,9.606a5.756,5.756,0,0,1,1,3.595Zm-1.626-.185a4.2,4.2,0,0,0-.686-2.54,2.208,2.208,0,0,0-1.881-.932A2.39,2.39,0,0,0,2.856,11v4.544a2.4,2.4,0,0,0,2.232,1.3,2.2,2.2,0,0,0,1.859-.927A4.587,4.587,0,0,0,7.638,13.166Zm8.288-3.217a4.873,4.873,0,0,0-.8-.062,2.143,2.143,0,0,0-2.171,1.362V18H11.329V8.49h1.582l.026,1.1a2.532,2.532,0,0,1,2.268-1.274,1.661,1.661,0,0,1,.721.123Zm.708,3.208a5.617,5.617,0,0,1,.549-2.514,4.1,4.1,0,0,1,1.529-1.723,4.163,4.163,0,0,1,2.237-.606,4.01,4.01,0,0,1,3.142,1.345,5.174,5.174,0,0,1,1.2,3.577v.114a5.666,5.666,0,0,1-.532,2.492,4.038,4.038,0,0,1-1.521,1.718,4.211,4.211,0,0,1-2.272.615,4,4,0,0,1-3.133-1.345,5.147,5.147,0,0,1-1.2-3.56Zm1.635.193A4.068,4.068,0,0,0,19,15.891a2.487,2.487,0,0,0,3.933-.013,4.449,4.449,0,0,0,.729-2.72,4.061,4.061,0,0,0-.743-2.536,2.361,2.361,0,0,0-1.973-.971,2.335,2.335,0,0,0-1.942.958A4.416,4.416,0,0,0,18.268,13.351Zm12.876,3.5a2.342,2.342,0,0,0,1.521-.527A1.855,1.855,0,0,0,33.385,15h1.538a2.949,2.949,0,0,1-.562,1.556,3.7,3.7,0,0,1-1.384,1.178,3.994,3.994,0,0,1-1.833.439,3.918,3.918,0,0,1-3.089-1.3,5.163,5.163,0,0,1-1.147-3.546v-.272a5.725,5.725,0,0,1,.51-2.47,3.883,3.883,0,0,1,1.463-1.679,4.157,4.157,0,0,1,2.254-.6,3.814,3.814,0,0,1,2.659.958,3.424,3.424,0,0,1,1.129,2.487H33.385a2.241,2.241,0,0,0-.7-1.516,2.174,2.174,0,0,0-1.551-.593,2.276,2.276,0,0,0-1.92.892,4.19,4.19,0,0,0-.681,2.58v.308a4.106,4.106,0,0,0,.677,2.531A2.287,2.287,0,0,0,31.144,16.849ZM40.7,18.176a4.155,4.155,0,0,1-3.146-1.27,4.714,4.714,0,0,1-1.213-3.4v-.3a5.707,5.707,0,0,1,.541-2.527,4.217,4.217,0,0,1,1.512-1.74,3.8,3.8,0,0,1,2.1-.628,3.562,3.562,0,0,1,2.883,1.222,5.289,5.289,0,0,1,1.028,3.5v.677H37.965a3.38,3.38,0,0,0,.822,2.272,2.583,2.583,0,0,0,2,.866,2.832,2.832,0,0,0,1.459-.352,3.666,3.666,0,0,0,1.046-.932l.993.773A3.993,3.993,0,0,1,40.7,18.176ZM40.5,9.65a2.169,2.169,0,0,0-1.652.716,3.482,3.482,0,0,0-.826,2.008h4.764v-.123a3.1,3.1,0,0,0-.668-1.92A2.042,2.042,0,0,0,40.5,9.65Zm11.329,5.827a1.2,1.2,0,0,0-.5-1.024,4.78,4.78,0,0,0-1.731-.628,8.186,8.186,0,0,1-1.96-.633,2.788,2.788,0,0,1-1.072-.879,2.1,2.1,0,0,1-.347-1.213,2.467,2.467,0,0,1,.989-1.978,3.861,3.861,0,0,1,2.527-.809,3.974,3.974,0,0,1,2.624.835,2.652,2.652,0,0,1,1.006,2.136H51.728a1.468,1.468,0,0,0-.567-1.151,2.124,2.124,0,0,0-1.428-.483,2.223,2.223,0,0,0-1.389.387,1.217,1.217,0,0,0-.5,1.011.986.986,0,0,0,.466.888,5.731,5.731,0,0,0,1.683.571,8.77,8.77,0,0,1,1.973.65,2.878,2.878,0,0,1,1.121.91,2.237,2.237,0,0,1,.365,1.3,2.434,2.434,0,0,1-1.02,2.043,4.277,4.277,0,0,1-2.646.769,4.789,4.789,0,0,1-2.021-.4,3.288,3.288,0,0,1-1.375-1.129,2.722,2.722,0,0,1-.5-1.569h1.626a1.683,1.683,0,0,0,.655,1.3,2.54,2.54,0,0,0,1.613.479,2.622,2.622,0,0,0,1.481-.374A1.148,1.148,0,0,0,51.825,15.478Zm3.313-2.32a5.617,5.617,0,0,1,.549-2.514,4.1,4.1,0,0,1,1.529-1.723,4.163,4.163,0,0,1,2.237-.606A4.01,4.01,0,0,1,62.6,9.659a5.174,5.174,0,0,1,1.2,3.577v.114a5.666,5.666,0,0,1-.532,2.492,4.038,4.038,0,0,1-1.521,1.718,4.211,4.211,0,0,1-2.272.615,4,4,0,0,1-3.133-1.345,5.147,5.147,0,0,1-1.2-3.56Zm1.635.193a4.068,4.068,0,0,0,.734,2.54,2.487,2.487,0,0,0,3.933-.013,4.449,4.449,0,0,0,.729-2.72,4.061,4.061,0,0,0-.743-2.536,2.361,2.361,0,0,0-1.973-.971,2.335,2.335,0,0,0-1.942.958A4.416,4.416,0,0,0,56.773,13.351Z" transform="translate(1040.89 1723.12)" fill="#1e168c"/>
    <path id="Trazado_141257" data-name="Trazado 141257" d="M921.53,203H791a25.51,25.51,0,0,1-25.51-25.51h0A25.51,25.51,0,0,1,791,151.93H921.53A25.51,25.51,0,0,1,947,177.44h0A25.51,25.51,0,0,1,921.53,203Z" transform="translate(300.93 1630.24)" fill="#eef3ff"/>
    <path id="Trazado_144502" data-name="Trazado 144502" d="M3.173-5.01V0H1.485V-12.8h4.72A4.742,4.742,0,0,1,9.5-11.725a3.635,3.635,0,0,1,1.191,2.839,3.587,3.587,0,0,1-1.165,2.87A4.954,4.954,0,0,1,6.188-5.01Zm0-1.38H6.205a3.032,3.032,0,0,0,2.074-.638A2.334,2.334,0,0,0,9-8.873,2.411,2.411,0,0,0,8.279-10.7,2.84,2.84,0,0,0,6.3-11.417H3.173Zm14.01-1.661a4.873,4.873,0,0,0-.8-.062A2.143,2.143,0,0,0,14.212-6.75V0H12.586V-9.51h1.582l.026,1.1a2.532,2.532,0,0,1,2.268-1.274,1.661,1.661,0,0,1,.721.123Zm.708,3.208a5.617,5.617,0,0,1,.549-2.514,4.1,4.1,0,0,1,1.529-1.723,4.163,4.163,0,0,1,2.237-.606,4.01,4.01,0,0,1,3.142,1.345,5.174,5.174,0,0,1,1.2,3.577v.114a5.666,5.666,0,0,1-.532,2.492A4.038,4.038,0,0,1,24.5-.439a4.211,4.211,0,0,1-2.272.615A4,4,0,0,1,19.09-1.169a5.147,5.147,0,0,1-1.2-3.56Zm1.635.193a4.068,4.068,0,0,0,.734,2.54,2.349,2.349,0,0,0,1.964.958,2.335,2.335,0,0,0,1.969-.971,4.449,4.449,0,0,0,.729-2.72,4.061,4.061,0,0,0-.743-2.536,2.361,2.361,0,0,0-1.973-.971,2.335,2.335,0,0,0-1.942.958A4.416,4.416,0,0,0,19.525-4.649ZM32.4-1.151a2.342,2.342,0,0,0,1.521-.527A1.855,1.855,0,0,0,34.642-3H36.18a2.949,2.949,0,0,1-.562,1.556A3.7,3.7,0,0,1,34.234-.264,3.994,3.994,0,0,1,32.4.176a3.918,3.918,0,0,1-3.089-1.3,5.163,5.163,0,0,1-1.147-3.546v-.272a5.725,5.725,0,0,1,.51-2.47,3.883,3.883,0,0,1,1.463-1.679,4.157,4.157,0,0,1,2.254-.6,3.814,3.814,0,0,1,2.659.958A3.424,3.424,0,0,1,36.18-6.24H34.642a2.241,2.241,0,0,0-.7-1.516,2.174,2.174,0,0,0-1.551-.593,2.276,2.276,0,0,0-1.92.892,4.19,4.19,0,0,0-.681,2.58v.308a4.106,4.106,0,0,0,.677,2.531A2.287,2.287,0,0,0,32.4-1.151ZM41.955.176a4.155,4.155,0,0,1-3.146-1.27,4.714,4.714,0,0,1-1.213-3.4v-.3a5.707,5.707,0,0,1,.541-2.527,4.217,4.217,0,0,1,1.512-1.74,3.8,3.8,0,0,1,2.1-.628,3.562,3.562,0,0,1,2.883,1.222,5.289,5.289,0,0,1,1.028,3.5v.677H39.221a3.38,3.38,0,0,0,.822,2.272,2.583,2.583,0,0,0,2,.866A2.832,2.832,0,0,0,43.5-1.5a3.666,3.666,0,0,0,1.046-.932l.993.773A3.993,3.993,0,0,1,41.955.176Zm-.2-8.525a2.169,2.169,0,0,0-1.652.716,3.482,3.482,0,0,0-.826,2.008h4.764v-.123a3.1,3.1,0,0,0-.668-1.92A2.042,2.042,0,0,0,41.753-8.35ZM53.082-2.522a1.2,1.2,0,0,0-.5-1.024,4.78,4.78,0,0,0-1.731-.628,8.186,8.186,0,0,1-1.96-.633,2.788,2.788,0,0,1-1.072-.879A2.1,2.1,0,0,1,47.474-6.9a2.467,2.467,0,0,1,.989-1.978,3.861,3.861,0,0,1,2.527-.809,3.974,3.974,0,0,1,2.624.835A2.652,2.652,0,0,1,54.62-6.715H52.985a1.468,1.468,0,0,0-.567-1.151A2.124,2.124,0,0,0,50.99-8.35a2.223,2.223,0,0,0-1.389.387,1.217,1.217,0,0,0-.5,1.011.986.986,0,0,0,.466.888,5.731,5.731,0,0,0,1.683.571,8.77,8.77,0,0,1,1.973.65,2.878,2.878,0,0,1,1.121.91,2.237,2.237,0,0,1,.365,1.3,2.434,2.434,0,0,1-1.02,2.043,4.277,4.277,0,0,1-2.646.769,4.789,4.789,0,0,1-2.021-.4,3.288,3.288,0,0,1-1.375-1.129,2.722,2.722,0,0,1-.5-1.569h1.626a1.683,1.683,0,0,0,.655,1.3,2.54,2.54,0,0,0,1.613.479,2.622,2.622,0,0,0,1.481-.374A1.148,1.148,0,0,0,53.082-2.522ZM62.7,0a3.416,3.416,0,0,1-.229-1A3.628,3.628,0,0,1,59.761.176a3.357,3.357,0,0,1-2.307-.8,2.573,2.573,0,0,1-.9-2.017,2.688,2.688,0,0,1,1.129-2.307,5.325,5.325,0,0,1,3.177-.822h1.582v-.747a1.826,1.826,0,0,0-.51-1.358,2.049,2.049,0,0,0-1.5-.505,2.371,2.371,0,0,0-1.459.439,1.3,1.3,0,0,0-.589,1.063H56.747a2.244,2.244,0,0,1,.505-1.375A3.449,3.449,0,0,1,58.623-9.3a4.613,4.613,0,0,1,1.9-.387,3.759,3.759,0,0,1,2.575.822A2.964,2.964,0,0,1,64.068-6.6v4.377A5.351,5.351,0,0,0,64.4-.141V0ZM60-1.239a2.858,2.858,0,0,0,1.45-.4,2.392,2.392,0,0,0,.993-1.028V-4.614H61.168q-2.988,0-2.988,1.749a1.48,1.48,0,0,0,.51,1.2A1.959,1.959,0,0,0,60-1.239ZM68.146-9.51l.044,1.055a3.512,3.512,0,0,1,2.821-1.23,2.719,2.719,0,0,1,2.716,1.529,3.6,3.6,0,0,1,1.235-1.107,3.647,3.647,0,0,1,1.8-.422q3.129,0,3.182,3.313V0H78.315V-6.275A2.184,2.184,0,0,0,77.849-7.8a2.051,2.051,0,0,0-1.564-.505,2.156,2.156,0,0,0-1.5.541,2.193,2.193,0,0,0-.694,1.455V0H72.453V-6.231a1.814,1.814,0,0,0-2.03-2.074,2.175,2.175,0,0,0-2.188,1.362V0H66.608V-9.51ZM84.16,0H82.534V-9.51H84.16ZM82.4-12.032a.971.971,0,0,1,.242-.668.907.907,0,0,1,.716-.272.922.922,0,0,1,.721.272.96.96,0,0,1,.246.668.929.929,0,0,1-.246.659.938.938,0,0,1-.721.264.924.924,0,0,1-.716-.264A.938.938,0,0,1,82.4-12.032ZM90.708.176a4.155,4.155,0,0,1-3.146-1.27,4.714,4.714,0,0,1-1.213-3.4v-.3a5.707,5.707,0,0,1,.541-2.527A4.217,4.217,0,0,1,88.4-9.057a3.8,3.8,0,0,1,2.1-.628,3.562,3.562,0,0,1,2.883,1.222,5.289,5.289,0,0,1,1.028,3.5v.677H87.974A3.38,3.38,0,0,0,88.8-2.017a2.583,2.583,0,0,0,2,.866A2.832,2.832,0,0,0,92.255-1.5,3.666,3.666,0,0,0,93.3-2.435l.993.773A3.993,3.993,0,0,1,90.708.176Zm-.2-8.525a2.169,2.169,0,0,0-1.652.716,3.482,3.482,0,0,0-.826,2.008h4.764v-.123a3.1,3.1,0,0,0-.668-1.92A2.042,2.042,0,0,0,90.506-8.35Zm7.33-1.16.053,1.2a3.465,3.465,0,0,1,2.848-1.371q3.015,0,3.041,3.4V0h-1.626V-6.293a2.189,2.189,0,0,0-.47-1.521,1.884,1.884,0,0,0-1.437-.492,2.347,2.347,0,0,0-1.389.422,2.865,2.865,0,0,0-.932,1.107V0H96.3V-9.51Zm10.6-2.3v2.3h1.775v1.257h-1.775v5.9a1.32,1.32,0,0,0,.237.858,1,1,0,0,0,.809.286,3.937,3.937,0,0,0,.773-.105V0a4.742,4.742,0,0,1-1.248.175,2.025,2.025,0,0,1-1.644-.659,2.832,2.832,0,0,1-.554-1.872v-5.9h-1.731V-9.51h1.731v-2.3Zm2.887,6.97a5.617,5.617,0,0,1,.549-2.514A4.1,4.1,0,0,1,113.4-9.079a4.163,4.163,0,0,1,2.237-.606,4.01,4.01,0,0,1,3.142,1.345,5.174,5.174,0,0,1,1.2,3.577v.114a5.666,5.666,0,0,1-.532,2.492,4.038,4.038,0,0,1-1.521,1.718,4.211,4.211,0,0,1-2.272.615,4,4,0,0,1-3.133-1.345,5.147,5.147,0,0,1-1.2-3.56Zm1.635.193a4.068,4.068,0,0,0,.734,2.54,2.349,2.349,0,0,0,1.964.958,2.335,2.335,0,0,0,1.969-.971,4.449,4.449,0,0,0,.729-2.72,4.061,4.061,0,0,0-.743-2.536,2.361,2.361,0,0,0-1.973-.971,2.335,2.335,0,0,0-1.942.958A4.416,4.416,0,0,0,112.957-4.649ZM.835,13.166a5.571,5.571,0,0,1,1.037-3.52A3.28,3.28,0,0,1,4.588,8.314,3.3,3.3,0,0,1,7.233,9.457V4.5H8.859V18H7.365l-.079-1.02a3.311,3.311,0,0,1-2.716,1.2,3.248,3.248,0,0,1-2.694-1.354A5.634,5.634,0,0,1,.835,13.289Zm1.626.185a4.218,4.218,0,0,0,.668,2.531,2.159,2.159,0,0,0,1.846.914,2.372,2.372,0,0,0,2.259-1.389V11.039A2.39,2.39,0,0,0,4.992,9.694a2.17,2.17,0,0,0-1.863.923A4.644,4.644,0,0,0,2.461,13.351Zm12.867,4.825a4.155,4.155,0,0,1-3.146-1.27,4.714,4.714,0,0,1-1.213-3.4v-.3a5.707,5.707,0,0,1,.541-2.527,4.217,4.217,0,0,1,1.512-1.74,3.8,3.8,0,0,1,2.1-.628,3.562,3.562,0,0,1,2.883,1.222,5.289,5.289,0,0,1,1.028,3.5v.677H12.595a3.38,3.38,0,0,0,.822,2.272,2.583,2.583,0,0,0,2,.866,2.832,2.832,0,0,0,1.459-.352,3.666,3.666,0,0,0,1.046-.932l.993.773A3.993,3.993,0,0,1,15.328,18.176Zm-.2-8.525a2.169,2.169,0,0,0-1.652.716,3.482,3.482,0,0,0-.826,2.008h4.764v-.123a3.1,3.1,0,0,0-.668-1.92A2.042,2.042,0,0,0,15.126,9.65Zm18.281,3.7a5.694,5.694,0,0,1-.993,3.5,3.183,3.183,0,0,1-2.689,1.327A3.488,3.488,0,0,1,27,17.077v4.579H25.374V8.49h1.485l.079,1.055a3.35,3.35,0,0,1,2.76-1.23A3.243,3.243,0,0,1,32.41,9.606a5.756,5.756,0,0,1,1,3.595Zm-1.626-.185a4.2,4.2,0,0,0-.686-2.54,2.208,2.208,0,0,0-1.881-.932A2.39,2.39,0,0,0,27,11v4.544a2.4,2.4,0,0,0,2.232,1.3,2.2,2.2,0,0,0,1.859-.927A4.587,4.587,0,0,0,31.781,13.166Zm7.638,5.01a4.155,4.155,0,0,1-3.146-1.27,4.714,4.714,0,0,1-1.213-3.4v-.3a5.707,5.707,0,0,1,.541-2.527,4.217,4.217,0,0,1,1.512-1.74,3.8,3.8,0,0,1,2.1-.628A3.562,3.562,0,0,1,42.1,9.536a5.289,5.289,0,0,1,1.028,3.5v.677H36.686a3.38,3.38,0,0,0,.822,2.272,2.583,2.583,0,0,0,2,.866,2.832,2.832,0,0,0,1.459-.352,3.666,3.666,0,0,0,1.046-.932l.993.773A3.993,3.993,0,0,1,39.419,18.176Zm-.2-8.525a2.169,2.169,0,0,0-1.652.716,3.482,3.482,0,0,0-.826,2.008H41.5v-.123a3.1,3.1,0,0,0-.668-1.92A2.042,2.042,0,0,0,39.217,9.65Zm5.4,3.516a5.571,5.571,0,0,1,1.037-3.52,3.529,3.529,0,0,1,5.361-.189V4.5h1.626V18H51.144l-.079-1.02a3.311,3.311,0,0,1-2.716,1.2,3.248,3.248,0,0,1-2.694-1.354,5.634,5.634,0,0,1-1.042-3.533Zm1.626.185a4.218,4.218,0,0,0,.668,2.531,2.159,2.159,0,0,0,1.846.914,2.372,2.372,0,0,0,2.259-1.389V11.039a2.39,2.39,0,0,0-2.241-1.345,2.17,2.17,0,0,0-1.863.923A4.644,4.644,0,0,0,46.239,13.351ZM56.927,18H55.3V8.49h1.626ZM55.169,5.968a.971.971,0,0,1,.242-.668.907.907,0,0,1,.716-.272.922.922,0,0,1,.721.272.96.96,0,0,1,.246.668.929.929,0,0,1-.246.659.938.938,0,0,1-.721.264.924.924,0,0,1-.716-.264A.938.938,0,0,1,55.169,5.968Zm3.964,7.2a5.571,5.571,0,0,1,1.037-3.52,3.529,3.529,0,0,1,5.361-.189V4.5h1.626V18H65.663l-.079-1.02a3.311,3.311,0,0,1-2.716,1.2,3.248,3.248,0,0,1-2.694-1.354,5.634,5.634,0,0,1-1.042-3.533Zm1.626.185a4.218,4.218,0,0,0,.668,2.531,2.159,2.159,0,0,0,1.846.914,2.372,2.372,0,0,0,2.259-1.389V11.039A2.39,2.39,0,0,0,63.29,9.694a2.17,2.17,0,0,0-1.863.923A4.644,4.644,0,0,0,60.759,13.351Zm8.49-.193a5.617,5.617,0,0,1,.549-2.514,4.1,4.1,0,0,1,1.529-1.723,4.163,4.163,0,0,1,2.237-.606,4.01,4.01,0,0,1,3.142,1.345,5.174,5.174,0,0,1,1.2,3.577v.114a5.666,5.666,0,0,1-.532,2.492,4.038,4.038,0,0,1-1.521,1.718,4.211,4.211,0,0,1-2.272.615,4,4,0,0,1-3.133-1.345,5.147,5.147,0,0,1-1.2-3.56Zm1.635.193a4.068,4.068,0,0,0,.734,2.54,2.487,2.487,0,0,0,3.933-.013,4.449,4.449,0,0,0,.729-2.72,4.061,4.061,0,0,0-.743-2.536,2.361,2.361,0,0,0-1.973-.971,2.335,2.335,0,0,0-1.942.958A4.416,4.416,0,0,0,70.884,13.351Zm14.6,2.127a1.2,1.2,0,0,0-.5-1.024,4.78,4.78,0,0,0-1.731-.628,8.186,8.186,0,0,1-1.96-.633,2.788,2.788,0,0,1-1.072-.879,2.1,2.1,0,0,1-.347-1.213,2.467,2.467,0,0,1,.989-1.978,3.861,3.861,0,0,1,2.527-.809,3.974,3.974,0,0,1,2.624.835,2.652,2.652,0,0,1,1.006,2.136H85.386a1.468,1.468,0,0,0-.567-1.151,2.124,2.124,0,0,0-1.428-.483A2.223,2.223,0,0,0,82,10.037a1.217,1.217,0,0,0-.5,1.011.986.986,0,0,0,.466.888,5.731,5.731,0,0,0,1.683.571,8.77,8.77,0,0,1,1.973.65,2.878,2.878,0,0,1,1.121.91,2.237,2.237,0,0,1,.365,1.3,2.434,2.434,0,0,1-1.02,2.043,4.277,4.277,0,0,1-2.646.769,4.789,4.789,0,0,1-2.021-.4,3.288,3.288,0,0,1-1.375-1.129,2.722,2.722,0,0,1-.5-1.569h1.626a1.683,1.683,0,0,0,.655,1.3,2.54,2.54,0,0,0,1.613.479,2.622,2.622,0,0,0,1.481-.374A1.148,1.148,0,0,0,85.482,15.478Z" transform="translate(1100.18 1803.811)" fill="#1e168c"/>
    <path id="Trazado_141258" data-name="Trazado 141258" d="M922.16,346.1H791.63a25.51,25.51,0,0,1-25.51-25.51h0a25.51,25.51,0,0,1,25.51-25.5H922.16a25.5,25.5,0,0,1,25.5,25.5h0A25.51,25.51,0,0,1,922.16,346.1Z" transform="translate(300.93 1630.24)" fill="#eef3ff"/>
    <path id="Trazado_144515" data-name="Trazado 144515" d="M10.327-11.417H6.214V0H4.535V-11.417H.431V-12.8h9.9Zm4.861,3.366a4.873,4.873,0,0,0-.8-.062A2.143,2.143,0,0,0,12.217-6.75V0H10.592V-9.51h1.582l.026,1.1a2.532,2.532,0,0,1,2.268-1.274,1.661,1.661,0,0,1,.721.123ZM21.842,0a3.415,3.415,0,0,1-.229-1A3.628,3.628,0,0,1,18.906.176,3.357,3.357,0,0,1,16.6-.62a2.573,2.573,0,0,1-.9-2.017,2.688,2.688,0,0,1,1.129-2.307A5.325,5.325,0,0,1,20-5.766h1.582v-.747a1.826,1.826,0,0,0-.51-1.358,2.049,2.049,0,0,0-1.5-.505,2.371,2.371,0,0,0-1.459.439,1.3,1.3,0,0,0-.589,1.063H15.892A2.244,2.244,0,0,1,16.4-8.249,3.449,3.449,0,0,1,17.768-9.3a4.613,4.613,0,0,1,1.9-.387,3.759,3.759,0,0,1,2.575.822A2.964,2.964,0,0,1,23.213-6.6v4.377a5.351,5.351,0,0,0,.334,2.083V0Zm-2.7-1.239a2.858,2.858,0,0,0,1.45-.4,2.392,2.392,0,0,0,.993-1.028V-4.614H20.313q-2.988,0-2.988,1.749a1.48,1.48,0,0,0,.51,1.2A1.959,1.959,0,0,0,19.144-1.239ZM31.3-2.522a1.2,1.2,0,0,0-.5-1.024,4.78,4.78,0,0,0-1.731-.628,8.186,8.186,0,0,1-1.96-.633,2.788,2.788,0,0,1-1.072-.879A2.1,2.1,0,0,1,25.691-6.9a2.467,2.467,0,0,1,.989-1.978,3.861,3.861,0,0,1,2.527-.809,3.974,3.974,0,0,1,2.624.835,2.652,2.652,0,0,1,1.006,2.136H31.2a1.468,1.468,0,0,0-.567-1.151,2.124,2.124,0,0,0-1.428-.483,2.223,2.223,0,0,0-1.389.387,1.217,1.217,0,0,0-.5,1.011.986.986,0,0,0,.466.888,5.731,5.731,0,0,0,1.683.571,8.77,8.77,0,0,1,1.973.65,2.878,2.878,0,0,1,1.121.91,2.237,2.237,0,0,1,.365,1.3,2.434,2.434,0,0,1-1.02,2.043A4.277,4.277,0,0,1,29.26.176a4.789,4.789,0,0,1-2.021-.4,3.288,3.288,0,0,1-1.375-1.129,2.722,2.722,0,0,1-.5-1.569h1.626a1.683,1.683,0,0,0,.655,1.3,2.54,2.54,0,0,0,1.613.479,2.622,2.622,0,0,0,1.481-.374A1.148,1.148,0,0,0,31.3-2.522ZM36.81,0H35.184V-13.5H36.81Zm8.473,0a3.416,3.416,0,0,1-.229-1A3.628,3.628,0,0,1,42.347.176a3.357,3.357,0,0,1-2.307-.8,2.573,2.573,0,0,1-.9-2.017,2.688,2.688,0,0,1,1.129-2.307,5.325,5.325,0,0,1,3.177-.822h1.582v-.747a1.826,1.826,0,0,0-.51-1.358,2.049,2.049,0,0,0-1.5-.505,2.371,2.371,0,0,0-1.459.439,1.3,1.3,0,0,0-.589,1.063H39.332a2.244,2.244,0,0,1,.505-1.375A3.449,3.449,0,0,1,41.209-9.3a4.613,4.613,0,0,1,1.9-.387,3.759,3.759,0,0,1,2.575.822A2.964,2.964,0,0,1,46.653-6.6v4.377a5.351,5.351,0,0,0,.334,2.083V0Zm-2.7-1.239a2.858,2.858,0,0,0,1.45-.4,2.392,2.392,0,0,0,.993-1.028V-4.614H43.753q-2.988,0-2.988,1.749a1.48,1.48,0,0,0,.51,1.2A1.959,1.959,0,0,0,42.584-1.239Zm6.223-3.595a5.571,5.571,0,0,1,1.037-3.52A3.28,3.28,0,0,1,52.56-9.686a3.3,3.3,0,0,1,2.646,1.143V-13.5h1.626V0H55.337l-.079-1.02a3.311,3.311,0,0,1-2.716,1.2,3.248,3.248,0,0,1-2.694-1.354,5.634,5.634,0,0,1-1.042-3.533Zm1.626.185A4.218,4.218,0,0,0,51.1-2.118a2.159,2.159,0,0,0,1.846.914,2.372,2.372,0,0,0,2.259-1.389V-6.961a2.39,2.39,0,0,0-2.241-1.345,2.17,2.17,0,0,0-1.863.923A4.644,4.644,0,0,0,50.433-4.649Zm8.49-.193a5.617,5.617,0,0,1,.549-2.514A4.1,4.1,0,0,1,61-9.079a4.163,4.163,0,0,1,2.237-.606A4.01,4.01,0,0,1,66.38-8.341a5.174,5.174,0,0,1,1.2,3.577v.114a5.666,5.666,0,0,1-.532,2.492A4.038,4.038,0,0,1,65.528-.439a4.211,4.211,0,0,1-2.272.615,4,4,0,0,1-3.133-1.345,5.147,5.147,0,0,1-1.2-3.56Zm1.635.193a4.068,4.068,0,0,0,.734,2.54,2.349,2.349,0,0,0,1.964.958,2.335,2.335,0,0,0,1.969-.971,4.449,4.449,0,0,0,.729-2.72,4.061,4.061,0,0,0-.743-2.536,2.361,2.361,0,0,0-1.973-.971,2.335,2.335,0,0,0-1.942.958A4.416,4.416,0,0,0,60.558-4.649Z" transform="translate(1100.81 1954.641)" fill="#1e168c"/>
    <path id="Trazado_141259" data-name="Trazado 141259" d="M931.41,275.6H800.88a25.51,25.51,0,0,1-25.51-25.5h0a25.51,25.51,0,0,1,25.51-25.51H931.41a25.51,25.51,0,0,1,25.5,25.51h0a25.5,25.5,0,0,1-25.5,25.5Z" transform="translate(300.93 1630.24)" fill="#eef3ff"/>
    <path id="Trazado_144504" data-name="Trazado 144504" d="M10.327-11.417H6.214V0H4.535V-11.417H.431V-12.8h9.9Zm4.861,3.366a4.873,4.873,0,0,0-.8-.062A2.143,2.143,0,0,0,12.217-6.75V0H10.592V-9.51h1.582l.026,1.1a2.532,2.532,0,0,1,2.268-1.274,1.661,1.661,0,0,1,.721.123ZM21.842,0a3.415,3.415,0,0,1-.229-1A3.628,3.628,0,0,1,18.906.176,3.357,3.357,0,0,1,16.6-.62a2.573,2.573,0,0,1-.9-2.017,2.688,2.688,0,0,1,1.129-2.307A5.325,5.325,0,0,1,20-5.766h1.582v-.747a1.826,1.826,0,0,0-.51-1.358,2.049,2.049,0,0,0-1.5-.505,2.371,2.371,0,0,0-1.459.439,1.3,1.3,0,0,0-.589,1.063H15.892A2.244,2.244,0,0,1,16.4-8.249,3.449,3.449,0,0,1,17.768-9.3a4.613,4.613,0,0,1,1.9-.387,3.759,3.759,0,0,1,2.575.822A2.964,2.964,0,0,1,23.213-6.6v4.377a5.351,5.351,0,0,0,.334,2.083V0Zm-2.7-1.239a2.858,2.858,0,0,0,1.45-.4,2.392,2.392,0,0,0,.993-1.028V-4.614H20.313q-2.988,0-2.988,1.749a1.48,1.48,0,0,0,.51,1.2A1.959,1.959,0,0,0,19.144-1.239ZM27.3-9.51l.053,1.2A3.465,3.465,0,0,1,30.2-9.686q3.015,0,3.041,3.4V0H31.615V-6.293a2.189,2.189,0,0,0-.47-1.521,1.884,1.884,0,0,0-1.437-.492,2.347,2.347,0,0,0-1.389.422,2.865,2.865,0,0,0-.932,1.107V0H25.762V-9.51ZM41.231-2.522a1.2,1.2,0,0,0-.5-1.024A4.78,4.78,0,0,0,39-4.175a8.186,8.186,0,0,1-1.96-.633,2.788,2.788,0,0,1-1.072-.879A2.1,2.1,0,0,1,35.623-6.9a2.467,2.467,0,0,1,.989-1.978,3.861,3.861,0,0,1,2.527-.809,3.974,3.974,0,0,1,2.624.835,2.652,2.652,0,0,1,1.006,2.136H41.134a1.468,1.468,0,0,0-.567-1.151,2.124,2.124,0,0,0-1.428-.483,2.223,2.223,0,0,0-1.389.387,1.217,1.217,0,0,0-.5,1.011.986.986,0,0,0,.466.888,5.731,5.731,0,0,0,1.683.571,8.77,8.77,0,0,1,1.973.65,2.878,2.878,0,0,1,1.121.91,2.237,2.237,0,0,1,.365,1.3,2.434,2.434,0,0,1-1.02,2.043,4.277,4.277,0,0,1-2.646.769,4.789,4.789,0,0,1-2.021-.4,3.288,3.288,0,0,1-1.375-1.129,2.722,2.722,0,0,1-.5-1.569h1.626a1.683,1.683,0,0,0,.655,1.3,2.54,2.54,0,0,0,1.613.479,2.622,2.622,0,0,0,1.481-.374A1.148,1.148,0,0,0,41.231-2.522ZM53.008-4.649a5.694,5.694,0,0,1-.993,3.5A3.183,3.183,0,0,1,49.325.176,3.488,3.488,0,0,1,46.6-.923V3.656H44.975V-9.51H46.46l.079,1.055a3.35,3.35,0,0,1,2.76-1.23A3.243,3.243,0,0,1,52.01-8.394a5.756,5.756,0,0,1,1,3.595Zm-1.626-.185a4.2,4.2,0,0,0-.686-2.54,2.208,2.208,0,0,0-1.881-.932A2.39,2.39,0,0,0,46.6-7v4.544a2.4,2.4,0,0,0,2.232,1.3,2.2,2.2,0,0,0,1.859-.927A4.587,4.587,0,0,0,51.382-4.834Zm3.261-.009a5.617,5.617,0,0,1,.549-2.514,4.1,4.1,0,0,1,1.529-1.723,4.163,4.163,0,0,1,2.237-.606A4.01,4.01,0,0,1,62.1-8.341a5.174,5.174,0,0,1,1.2,3.577v.114a5.666,5.666,0,0,1-.532,2.492A4.038,4.038,0,0,1,61.248-.439a4.211,4.211,0,0,1-2.272.615,4,4,0,0,1-3.133-1.345,5.147,5.147,0,0,1-1.2-3.56Zm1.635.193a4.068,4.068,0,0,0,.734,2.54,2.349,2.349,0,0,0,1.964.958,2.335,2.335,0,0,0,1.969-.971,4.449,4.449,0,0,0,.729-2.72,4.061,4.061,0,0,0-.743-2.536,2.361,2.361,0,0,0-1.973-.971,2.335,2.335,0,0,0-1.942.958A4.416,4.416,0,0,0,56.277-4.649Zm13.658-3.4a4.873,4.873,0,0,0-.8-.062A2.143,2.143,0,0,0,66.965-6.75V0H65.339V-9.51h1.582l.026,1.1a2.532,2.532,0,0,1,2.268-1.274,1.661,1.661,0,0,1,.721.123Zm4.5-3.762v2.3h1.775v1.257H74.435v5.9a1.32,1.32,0,0,0,.237.858,1,1,0,0,0,.809.286,3.937,3.937,0,0,0,.773-.105V0a4.742,4.742,0,0,1-1.248.175,2.025,2.025,0,0,1-1.644-.659,2.832,2.832,0,0,1-.554-1.872v-5.9H71.078V-9.51h1.731v-2.3ZM82.055.176a4.155,4.155,0,0,1-3.146-1.27,4.714,4.714,0,0,1-1.213-3.4v-.3a5.707,5.707,0,0,1,.541-2.527,4.217,4.217,0,0,1,1.512-1.74,3.8,3.8,0,0,1,2.1-.628,3.562,3.562,0,0,1,2.883,1.222,5.289,5.289,0,0,1,1.028,3.5v.677H79.322a3.38,3.38,0,0,0,.822,2.272,2.583,2.583,0,0,0,2,.866A2.832,2.832,0,0,0,83.6-1.5a3.666,3.666,0,0,0,1.046-.932l.993.773A3.993,3.993,0,0,1,82.055.176Zm-.2-8.525a2.169,2.169,0,0,0-1.652.716,3.482,3.482,0,0,0-.826,2.008h4.764v-.123a3.1,3.1,0,0,0-.668-1.92A2.042,2.042,0,0,0,81.853-8.35ZM93.182-2.522a1.2,1.2,0,0,0-.5-1.024,4.78,4.78,0,0,0-1.731-.628,8.186,8.186,0,0,1-1.96-.633,2.788,2.788,0,0,1-1.072-.879A2.1,2.1,0,0,1,87.575-6.9a2.467,2.467,0,0,1,.989-1.978,3.861,3.861,0,0,1,2.527-.809,3.974,3.974,0,0,1,2.624.835A2.652,2.652,0,0,1,94.72-6.715H93.086a1.468,1.468,0,0,0-.567-1.151,2.124,2.124,0,0,0-1.428-.483,2.223,2.223,0,0,0-1.389.387,1.217,1.217,0,0,0-.5,1.011.986.986,0,0,0,.466.888,5.731,5.731,0,0,0,1.683.571,8.77,8.77,0,0,1,1.973.65,2.878,2.878,0,0,1,1.121.91,2.237,2.237,0,0,1,.365,1.3,2.434,2.434,0,0,1-1.02,2.043,4.277,4.277,0,0,1-2.646.769,4.789,4.789,0,0,1-2.021-.4,3.288,3.288,0,0,1-1.375-1.129,2.722,2.722,0,0,1-.5-1.569h1.626a1.683,1.683,0,0,0,.655,1.3,2.54,2.54,0,0,0,1.613.479,2.622,2.622,0,0,0,1.481-.374A1.148,1.148,0,0,0,93.182-2.522ZM3,18H1.371V8.49H3ZM1.239,5.968A.971.971,0,0,1,1.481,5.3.907.907,0,0,1,2.2,5.027a.922.922,0,0,1,.721.272.96.96,0,0,1,.246.668.929.929,0,0,1-.246.659.938.938,0,0,1-.721.264.924.924,0,0,1-.716-.264A.938.938,0,0,1,1.239,5.968Zm5.9,2.522.053,1.2a3.465,3.465,0,0,1,2.848-1.371q3.015,0,3.041,3.4V18H11.452V11.707a2.189,2.189,0,0,0-.47-1.521,1.884,1.884,0,0,0-1.437-.492,2.347,2.347,0,0,0-1.389.422,2.865,2.865,0,0,0-.932,1.107V18H5.6V8.49Zm10.6-2.3v2.3h1.775V9.747H17.736v5.9a1.32,1.32,0,0,0,.237.858,1,1,0,0,0,.809.286,3.937,3.937,0,0,0,.773-.105V18a4.742,4.742,0,0,1-1.248.175,2.025,2.025,0,0,1-1.644-.659,2.832,2.832,0,0,1-.554-1.872v-5.9H14.379V8.49H16.11v-2.3Zm7.62,11.988a4.155,4.155,0,0,1-3.146-1.27A4.714,4.714,0,0,1,21,13.509v-.3a5.707,5.707,0,0,1,.541-2.527,4.217,4.217,0,0,1,1.512-1.74,3.8,3.8,0,0,1,2.1-.628,3.562,3.562,0,0,1,2.883,1.222,5.289,5.289,0,0,1,1.028,3.5v.677H22.623a3.38,3.38,0,0,0,.822,2.272,2.583,2.583,0,0,0,2,.866A2.832,2.832,0,0,0,26.9,16.5a3.666,3.666,0,0,0,1.046-.932l.993.773A3.993,3.993,0,0,1,25.356,18.176Zm-.2-8.525a2.169,2.169,0,0,0-1.652.716,3.482,3.482,0,0,0-.826,2.008h4.764v-.123a3.1,3.1,0,0,0-.668-1.92A2.042,2.042,0,0,0,25.154,9.65Zm10.389.3a4.873,4.873,0,0,0-.8-.062,2.143,2.143,0,0,0-2.171,1.362V18H30.946V8.49h1.582l.026,1.1a2.532,2.532,0,0,1,2.268-1.274,1.661,1.661,0,0,1,.721.123ZM38.575,8.49l.053,1.2a3.465,3.465,0,0,1,2.848-1.371q3.015,0,3.041,3.4V18H42.891V11.707a2.189,2.189,0,0,0-.47-1.521,1.884,1.884,0,0,0-1.437-.492,2.347,2.347,0,0,0-1.389.422,2.865,2.865,0,0,0-.932,1.107V18H37.037V8.49Zm7.963,4.667a5.617,5.617,0,0,1,.549-2.514,4.1,4.1,0,0,1,1.529-1.723,4.163,4.163,0,0,1,2.237-.606A4.01,4.01,0,0,1,54,9.659a5.174,5.174,0,0,1,1.2,3.577v.114a5.666,5.666,0,0,1-.532,2.492,4.038,4.038,0,0,1-1.521,1.718,4.211,4.211,0,0,1-2.272.615,4,4,0,0,1-3.133-1.345,5.147,5.147,0,0,1-1.2-3.56Zm1.635.193a4.068,4.068,0,0,0,.734,2.54,2.487,2.487,0,0,0,3.933-.013,4.449,4.449,0,0,0,.729-2.72,4.061,4.061,0,0,0-.743-2.536,2.361,2.361,0,0,0-1.973-.971,2.335,2.335,0,0,0-1.942.958A4.416,4.416,0,0,0,48.173,13.351Zm14.6,2.127a1.2,1.2,0,0,0-.5-1.024,4.78,4.78,0,0,0-1.731-.628,8.186,8.186,0,0,1-1.96-.633,2.788,2.788,0,0,1-1.072-.879,2.1,2.1,0,0,1-.347-1.213,2.467,2.467,0,0,1,.989-1.978,3.861,3.861,0,0,1,2.527-.809,3.974,3.974,0,0,1,2.624.835,2.652,2.652,0,0,1,1.006,2.136H62.675a1.468,1.468,0,0,0-.567-1.151A2.124,2.124,0,0,0,60.68,9.65a2.223,2.223,0,0,0-1.389.387,1.217,1.217,0,0,0-.5,1.011.986.986,0,0,0,.466.888,5.731,5.731,0,0,0,1.683.571,8.77,8.77,0,0,1,1.973.65,2.878,2.878,0,0,1,1.121.91,2.237,2.237,0,0,1,.365,1.3,2.434,2.434,0,0,1-1.02,2.043,4.277,4.277,0,0,1-2.646.769,4.789,4.789,0,0,1-2.021-.4,3.288,3.288,0,0,1-1.375-1.129,2.722,2.722,0,0,1-.5-1.569h1.626a1.683,1.683,0,0,0,.655,1.3,2.54,2.54,0,0,0,1.613.479,2.622,2.622,0,0,0,1.481-.374A1.148,1.148,0,0,0,62.771,15.478Z" transform="translate(1110.05 1876.471)" fill="#1e168c"/>
    <path id="Trazado_141260" data-name="Trazado 141260" d="M859.77,423H729.24a25.51,25.51,0,0,1-25.51-25.51h0A25.51,25.51,0,0,1,729.24,372H859.77a25.51,25.51,0,0,1,25.51,25.51h0A25.51,25.51,0,0,1,859.77,423Z" transform="translate(300.93 1630.24)" fill="#eef3ff"/>
    <g id="Grupo" transform="translate(300.93 1630.24)">
      <text id="Tecnología_de_" data-name="Tecnología de " transform="translate(737.49 393.61)" fill="#1e168c" font-size="18" font-family="Roboto-Regular, Roboto"><tspan x="0" y="0">Tecnología de </tspan></text>
      <text id="la_información" data-name="la información" transform="translate(737.49 411.61)" fill="#1e168c" font-size="18" font-family="Roboto-Regular, Roboto"><tspan x="0" y="0">la información</tspan></text>
    </g>
    <path id="Trazado_144533" data-name="Trazado 144533" d="M9.61,0A9.61,9.61,0,1,1,0,9.61,9.61,9.61,0,0,1,9.61,0Z" transform="translate(605.04 1798.07)" fill="#fff"/>
    <path id="Trazado_144541" data-name="Trazado 144541" d="M107.74,0H0" transform="translate(497.3 1807.68)" fill="none" stroke="#e8b4b1" stroke-width="2"/>
    <path id="Trazado_144534" data-name="Trazado 144534" d="M9.61,0A9.61,9.61,0,1,1,0,9.61,9.61,9.61,0,0,1,9.61,0Z" transform="translate(604.41 1941.141)" fill="#fff"/>
    <path id="Trazado_144536" data-name="Trazado 144536" d="M6.22,0A6.22,6.22,0,1,1,0,6.22,6.22,6.22,0,0,1,6.22,0Z" transform="translate(607.8 1944.61)" fill="url(#linear-gradient-7)"/>
    <path id="Trazado_144538" data-name="Trazado 144538" d="M114.01,0H0" transform="translate(493.79 1950.83)" fill="none" stroke="#e8b4b1" stroke-width="2"/>
    <path id="Trazado_144537" data-name="Trazado 144537" d="M9.61,0A9.61,9.61,0,1,1,0,9.61,9.61,9.61,0,0,1,9.61,0Z" transform="translate(595.17 1870.641)" fill="#fff"/>
    <path id="Trazado_144539" data-name="Trazado 144539" d="M6.22,0A6.22,6.22,0,1,1,0,6.22,6.22,6.22,0,0,1,6.22,0Z" transform="translate(598.56 1874.12)" fill="url(#linear-gradient-8)"/>
    <path id="Trazado_144543" data-name="Trazado 144543" d="M114.01,0H0" transform="translate(484.54 1880.34)" fill="none" stroke="#e8b4b1" stroke-width="2"/>
    <path id="Trazado_144525" data-name="Trazado 144525" d="M9.61,0A9.61,9.61,0,1,1,0,9.61,9.61,9.61,0,0,1,9.61,0Z" transform="translate(665.95 1717.301)" fill="#fff"/>
    <path id="Trazado_144526" data-name="Trazado 144526" d="M6.22,0A6.22,6.22,0,1,1,0,6.22,6.22,6.22,0,0,1,6.22,0Z" transform="translate(669.34 1720.771)" fill="url(#linear-gradient-9)"/>
    <path id="Trazado_144530" data-name="Trazado 144530" d="M114.02,0H0" transform="translate(555.32 1726.99)" fill="none" stroke="#e8b4b1" stroke-width="2"/>
    <path id="Trazado_144527" data-name="Trazado 144527" d="M9.61,0A9.61,9.61,0,1,1,0,9.61,9.61,9.61,0,0,1,9.61,0Z" transform="translate(661.95 2018.11)" fill="#fff"/>
    <path id="Trazado_144528" data-name="Trazado 144528" d="M6.22,0A6.22,6.22,0,1,1,0,6.22,6.22,6.22,0,0,1,6.22,0Z" transform="translate(665.34 2021.58)" fill="url(#linear-gradient-10)"/>
    <path id="Trazado_144531" data-name="Trazado 144531" d="M114.02,0H0" transform="translate(551.32 2027.801)" fill="none" stroke="#e8b4b1" stroke-width="2"/>
    <path id="Trazado_144535" data-name="Trazado 144535" d="M6.22,0A6.22,6.22,0,1,1,0,6.22,6.22,6.22,0,0,1,6.22,0Z" transform="translate(608.43 1801.46)" fill="url(#linear-gradient-11)"/>
    <path id="Trazado_141261" data-name="Trazado 141261" d="M104,122.26H234.55a25.51,25.51,0,0,0,25.51-25.51h0a25.51,25.51,0,0,0-25.51-25.51H104A25.51,25.51,0,0,0,78.52,96.75h0A25.51,25.51,0,0,0,104,122.26Z" transform="translate(300.93 1630.24)" fill="#eef3ff"/>
    <path id="Trazado_144545" data-name="Trazado 144545" d="M6.179-5.177H3.173V0h-1.7V-12.8H5.713a5.014,5.014,0,0,1,3.327.984A3.542,3.542,0,0,1,10.2-8.947a3.445,3.445,0,0,1-.646,2.083,3.856,3.856,0,0,1-1.8,1.327L10.767-.105V0H8.956ZM3.173-6.557H5.766a2.924,2.924,0,0,0,2-.652,2.2,2.2,0,0,0,.743-1.743A2.32,2.32,0,0,0,7.8-10.774a3,3,0,0,0-2.043-.643H3.173ZM16.26.176a4.155,4.155,0,0,1-3.146-1.27,4.714,4.714,0,0,1-1.213-3.4v-.3a5.707,5.707,0,0,1,.541-2.527,4.217,4.217,0,0,1,1.512-1.74,3.8,3.8,0,0,1,2.1-.628A3.562,3.562,0,0,1,18.94-8.464a5.289,5.289,0,0,1,1.028,3.5v.677H13.526a3.38,3.38,0,0,0,.822,2.272,2.583,2.583,0,0,0,2,.866A2.832,2.832,0,0,0,17.807-1.5a3.666,3.666,0,0,0,1.046-.932l.993.773A3.993,3.993,0,0,1,16.26.176Zm-.2-8.525a2.169,2.169,0,0,0-1.652.716,3.482,3.482,0,0,0-.826,2.008h4.764v-.123a3.1,3.1,0,0,0-.668-1.92A2.042,2.042,0,0,0,16.058-8.35Zm9.606,7.2a2.342,2.342,0,0,0,1.521-.527A1.855,1.855,0,0,0,27.905-3h1.538a2.949,2.949,0,0,1-.562,1.556A3.7,3.7,0,0,1,27.5-.264a3.994,3.994,0,0,1-1.833.439,3.918,3.918,0,0,1-3.089-1.3,5.163,5.163,0,0,1-1.147-3.546v-.272a5.725,5.725,0,0,1,.51-2.47A3.883,3.883,0,0,1,23.4-9.088a4.157,4.157,0,0,1,2.254-.6,3.814,3.814,0,0,1,2.659.958A3.424,3.424,0,0,1,29.443-6.24H27.905a2.241,2.241,0,0,0-.7-1.516,2.174,2.174,0,0,0-1.551-.593,2.276,2.276,0,0,0-1.92.892,4.19,4.19,0,0,0-.681,2.58v.308a4.106,4.106,0,0,0,.677,2.531A2.287,2.287,0,0,0,25.664-1.151ZM33.038,0H31.412V-9.51h1.626ZM31.28-12.032a.971.971,0,0,1,.242-.668.907.907,0,0,1,.716-.272.922.922,0,0,1,.721.272.96.96,0,0,1,.246.668.929.929,0,0,1-.246.659.938.938,0,0,1-.721.264.924.924,0,0,1-.716-.264A.938.938,0,0,1,31.28-12.032ZM43.69-4.649a5.654,5.654,0,0,1-1,3.5A3.2,3.2,0,0,1,40,.176,3.315,3.315,0,0,1,37.213-1.1L37.134,0H35.64V-13.5h1.626v5.036a3.3,3.3,0,0,1,2.716-1.222,3.221,3.221,0,0,1,2.72,1.31A5.824,5.824,0,0,1,43.69-4.79Zm-1.626-.185A4.394,4.394,0,0,0,41.423-7.4a2.124,2.124,0,0,0-1.846-.905,2.387,2.387,0,0,0-2.312,1.494V-2.7A2.454,2.454,0,0,0,39.595-1.2a2.112,2.112,0,0,0,1.819-.905A4.672,4.672,0,0,0,42.064-4.834ZM47.5,0H45.879V-9.51H47.5ZM45.747-12.032a.971.971,0,0,1,.242-.668.907.907,0,0,1,.716-.272.922.922,0,0,1,.721.272.96.96,0,0,1,.246.668.929.929,0,0,1-.246.659.938.938,0,0,1-.721.264.924.924,0,0,1-.716-.264A.938.938,0,0,1,45.747-12.032ZM51.636-9.51l.044,1.055A3.512,3.512,0,0,1,54.5-9.686a2.719,2.719,0,0,1,2.716,1.529,3.6,3.6,0,0,1,1.235-1.107,3.647,3.647,0,0,1,1.8-.422q3.129,0,3.182,3.313V0H61.8V-6.275A2.184,2.184,0,0,0,61.339-7.8a2.051,2.051,0,0,0-1.564-.505,2.156,2.156,0,0,0-1.5.541,2.193,2.193,0,0,0-.694,1.455V0H55.942V-6.231a1.814,1.814,0,0,0-2.03-2.074,2.175,2.175,0,0,0-2.188,1.362V0H50.1V-9.51ZM67.649,0H66.023V-9.51h1.626ZM65.892-12.032a.971.971,0,0,1,.242-.668.907.907,0,0,1,.716-.272.922.922,0,0,1,.721.272.96.96,0,0,1,.246.668.929.929,0,0,1-.246.659.938.938,0,0,1-.721.264.924.924,0,0,1-.716-.264A.938.938,0,0,1,65.892-12.032ZM74.2.176a4.155,4.155,0,0,1-3.146-1.27,4.714,4.714,0,0,1-1.213-3.4v-.3a5.707,5.707,0,0,1,.541-2.527,4.217,4.217,0,0,1,1.512-1.74A3.8,3.8,0,0,1,74-9.686a3.562,3.562,0,0,1,2.883,1.222,5.289,5.289,0,0,1,1.028,3.5v.677H71.464a3.38,3.38,0,0,0,.822,2.272,2.583,2.583,0,0,0,2,.866A2.832,2.832,0,0,0,75.744-1.5a3.666,3.666,0,0,0,1.046-.932l.993.773A3.993,3.993,0,0,1,74.2.176ZM74-8.35a2.169,2.169,0,0,0-1.652.716,3.482,3.482,0,0,0-.826,2.008H76.28v-.123a3.1,3.1,0,0,0-.668-1.92A2.042,2.042,0,0,0,74-8.35Zm7.33-1.16.053,1.2a3.465,3.465,0,0,1,2.848-1.371q3.015,0,3.041,3.4V0H85.641V-6.293a2.189,2.189,0,0,0-.47-1.521,1.884,1.884,0,0,0-1.437-.492,2.347,2.347,0,0,0-1.389.422,2.865,2.865,0,0,0-.932,1.107V0H79.787V-9.51Zm10.6-2.3v2.3H93.7v1.257H91.925v5.9a1.32,1.32,0,0,0,.237.858,1,1,0,0,0,.809.286,3.937,3.937,0,0,0,.773-.105V0A4.742,4.742,0,0,1,92.5.176a2.025,2.025,0,0,1-1.644-.659A2.832,2.832,0,0,1,90.3-2.355v-5.9H88.567V-9.51H90.3v-2.3Zm2.887,6.97a5.617,5.617,0,0,1,.549-2.514,4.1,4.1,0,0,1,1.529-1.723,4.163,4.163,0,0,1,2.237-.606,4.01,4.01,0,0,1,3.142,1.345,5.174,5.174,0,0,1,1.2,3.577v.114a5.666,5.666,0,0,1-.532,2.492,4.038,4.038,0,0,1-1.521,1.718,4.211,4.211,0,0,1-2.272.615,4,4,0,0,1-3.133-1.345,5.147,5.147,0,0,1-1.2-3.56Zm1.635.193a4.068,4.068,0,0,0,.734,2.54,2.349,2.349,0,0,0,1.964.958,2.335,2.335,0,0,0,1.969-.971,4.449,4.449,0,0,0,.729-2.72,4.061,4.061,0,0,0-.743-2.536,2.361,2.361,0,0,0-1.973-.971,2.335,2.335,0,0,0-1.942.958A4.416,4.416,0,0,0,96.447-4.649Z" transform="translate(397.7 1732.99)" fill="#1e168c"/>
    <path id="Trazado_141262" data-name="Trazado 141262" d="M44.74,203H175.27a25.51,25.51,0,0,0,25.51-25.51h0a25.51,25.51,0,0,0-25.51-25.51H44.74a25.51,25.51,0,0,0-25.51,25.51h0A25.51,25.51,0,0,0,44.74,203Z" transform="translate(300.93 1630.24)" fill="#eef3ff"/>
    <path id="Trazado_144546" data-name="Trazado 144546" d="M3.041-5.01,2.171,0H.519L2.742-12.8l4.271.009a4.177,4.177,0,0,1,3.05,1.05,3.3,3.3,0,0,1,.923,2.791A3.984,3.984,0,0,1,9.523-6.056,5.308,5.308,0,0,1,6.082-5Zm.237-1.38,2.848.009a3.464,3.464,0,0,0,2.206-.677A2.708,2.708,0,0,0,9.343-8.938a2.121,2.121,0,0,0-.448-1.753A2.256,2.256,0,0,0,7.181-11.4l-3.032-.009ZM13.1,0H11.514l1.652-9.51h1.582Zm1.31-12.981a.87.87,0,0,1,.672.242.9.9,0,0,1,.268.681.955.955,0,0,1-.268.677.962.962,0,0,1-.672.281.876.876,0,0,1-.677-.237.86.86,0,0,1-.255-.668,1,1,0,0,1,.264-.686A.93.93,0,0,1,14.405-12.981ZM19.714-1.143a2.413,2.413,0,0,0,1.538-.5,2.362,2.362,0,0,0,.9-1.349L23.651-3a3.391,3.391,0,0,1-.716,1.635A4,4,0,0,1,21.463-.211a4,4,0,0,1-1.819.387,3.394,3.394,0,0,1-2.008-.62,3.469,3.469,0,0,1-1.208-1.679,5.593,5.593,0,0,1-.264-2.421l.044-.439a6.306,6.306,0,0,1,.8-2.452,4.624,4.624,0,0,1,1.652-1.683,4.1,4.1,0,0,1,2.25-.567,3.214,3.214,0,0,1,2.391,1,3.465,3.465,0,0,1,.9,2.452L22.711-6.24a2.283,2.283,0,0,0-.519-1.507,1.808,1.808,0,0,0-1.354-.611,2.536,2.536,0,0,0-2.061.923,4.834,4.834,0,0,0-1.024,2.654l-.026.229a7.623,7.623,0,0,0-.018,1.16,2.65,2.65,0,0,0,.58,1.626A1.863,1.863,0,0,0,19.714-1.143Zm8.622-3.243L27.088-3.27,26.525,0H24.935l2.347-13.5h1.591L27.466-5.432l.976-.984L31.816-9.51h2.065L29.514-5.458,32.52,0h-1.74ZM35.587,0H34l1.652-9.51h1.582ZM36.9-12.981a.87.87,0,0,1,.672.242.9.9,0,0,1,.268.681.955.955,0,0,1-.268.677.962.962,0,0,1-.672.281.876.876,0,0,1-.677-.237.86.86,0,0,1-.255-.668,1,1,0,0,1,.264-.686A.93.93,0,0,1,36.9-12.981Zm4.447,3.463-.229,1.2a3.749,3.749,0,0,1,2.918-1.371,2.359,2.359,0,0,1,1.986.932,3.619,3.619,0,0,1,.475,2.522L45.457,0H43.866l1.046-6.251a3.332,3.332,0,0,0,.009-.8,1.314,1.314,0,0,0-1.45-1.255,2.994,2.994,0,0,0-2.514,1.528L39.779,0H38.188l1.652-9.51Zm7.031,4.746a7.75,7.75,0,0,1,.839-2.7,4.39,4.39,0,0,1,1.529-1.7,3.545,3.545,0,0,1,1.973-.523,2.926,2.926,0,0,1,2.5,1.248l.316-1.063h1.459L55.406-.2A4.627,4.627,0,0,1,53.93,2.711a4.159,4.159,0,0,1-3.015,1.042,4.281,4.281,0,0,1-1.85-.457,3.518,3.518,0,0,1-1.393-1.2l.905-.976a2.721,2.721,0,0,0,2.276,1.31,2.728,2.728,0,0,0,1.92-.633,3.265,3.265,0,0,0,1.042-1.9l.176-.844A3.6,3.6,0,0,1,51.275.176,2.8,2.8,0,0,1,49.733-.3a2.913,2.913,0,0,1-1.015-1.31,5.354,5.354,0,0,1-.4-1.912A9.825,9.825,0,0,1,48.375-4.772Zm1.538.9a3.345,3.345,0,0,0,.435,1.944,1.644,1.644,0,0,0,1.393.724,2.881,2.881,0,0,0,2.452-1.4l.747-4.363a2,2,0,0,0-1.907-1.352,2.468,2.468,0,0,0-2.123,1.053,5.488,5.488,0,0,0-.98,2.941ZM57.973,1.1H56.531l7.594-13.9h1.433ZM67.852-5.01,66.981,0H65.329l2.224-12.8,4.271.009a4.177,4.177,0,0,1,3.05,1.05A3.3,3.3,0,0,1,75.8-8.947a3.984,3.984,0,0,1-1.463,2.892A5.308,5.308,0,0,1,70.893-5Zm.237-1.38,2.848.009a3.464,3.464,0,0,0,2.206-.677,2.708,2.708,0,0,0,1.011-1.881,2.121,2.121,0,0,0-.448-1.753,2.256,2.256,0,0,0-1.714-.708l-3.032-.009ZM81.725,0a2.13,2.13,0,0,1-.062-.5L81.69-1A3.9,3.9,0,0,1,78.913.176a2.841,2.841,0,0,1-2.043-.8,2.407,2.407,0,0,1-.716-1.947,2.927,2.927,0,0,1,1.323-2.36,5.631,5.631,0,0,1,3.248-.848l1.661.009.105-.756a1.738,1.738,0,0,0-.33-1.349,1.591,1.591,0,0,0-1.252-.514,2.453,2.453,0,0,0-1.446.4,1.7,1.7,0,0,0-.769,1.1l-1.6.009a2.55,2.55,0,0,1,.65-1.481,3.784,3.784,0,0,1,1.468-1,4.742,4.742,0,0,1,1.854-.338,3.153,3.153,0,0,1,2.312.9,2.794,2.794,0,0,1,.694,2.3L83.3-1.784l-.044.677a3.318,3.318,0,0,0,.105.958L83.342,0Zm-2.5-1.23A2.774,2.774,0,0,0,80.675-1.6a3.661,3.661,0,0,0,1.173-1.059l.343-1.96-1.2-.009a4.561,4.561,0,0,0-2.3.475A1.748,1.748,0,0,0,77.779-2.8a1.361,1.361,0,0,0,.312,1.112A1.486,1.486,0,0,0,79.229-1.23Zm10.283.088a2.413,2.413,0,0,0,1.538-.5,2.362,2.362,0,0,0,.9-1.349L93.45-3a3.391,3.391,0,0,1-.716,1.635A4,4,0,0,1,91.261-.211a4,4,0,0,1-1.819.387,3.394,3.394,0,0,1-2.008-.62,3.469,3.469,0,0,1-1.208-1.679,5.593,5.593,0,0,1-.264-2.421l.044-.439a6.306,6.306,0,0,1,.8-2.452,4.624,4.624,0,0,1,1.652-1.683,4.1,4.1,0,0,1,2.25-.567,3.214,3.214,0,0,1,2.391,1,3.465,3.465,0,0,1,.9,2.452L92.509-6.24a2.283,2.283,0,0,0-.519-1.507,1.808,1.808,0,0,0-1.354-.611,2.536,2.536,0,0,0-2.061.923,4.834,4.834,0,0,0-1.024,2.654l-.026.229a7.623,7.623,0,0,0-.018,1.16,2.65,2.65,0,0,0,.58,1.626A1.863,1.863,0,0,0,89.512-1.143Zm8.622-3.243L96.886-3.27,96.324,0H94.733L97.08-13.5h1.591L97.264-5.432l.976-.984,3.375-3.094h2.065L99.312-5.458,102.318,0h-1.74ZM105.385,0H103.8l1.652-9.51h1.582Zm1.31-12.981a.87.87,0,0,1,.672.242.9.9,0,0,1,.268.681.955.955,0,0,1-.268.677.962.962,0,0,1-.672.281.876.876,0,0,1-.677-.237.86.86,0,0,1-.255-.668,1,1,0,0,1,.264-.686A.93.93,0,0,1,106.695-12.981Zm4.447,3.463-.229,1.2a3.749,3.749,0,0,1,2.918-1.371,2.359,2.359,0,0,1,1.986.932,3.619,3.619,0,0,1,.475,2.522L115.256,0h-1.591l1.046-6.251a3.332,3.332,0,0,0,.009-.8,1.314,1.314,0,0,0-1.45-1.255,2.994,2.994,0,0,0-2.514,1.528L109.578,0h-1.591l1.652-9.51Zm7.031,4.746a7.75,7.75,0,0,1,.839-2.7,4.39,4.39,0,0,1,1.529-1.7,3.545,3.545,0,0,1,1.973-.523,2.926,2.926,0,0,1,2.5,1.248l.316-1.063h1.459L125.2-.2a4.627,4.627,0,0,1-1.477,2.914,4.159,4.159,0,0,1-3.015,1.042,4.281,4.281,0,0,1-1.85-.457,3.518,3.518,0,0,1-1.393-1.2l.905-.976a2.721,2.721,0,0,0,2.276,1.31,2.728,2.728,0,0,0,1.92-.633,3.265,3.265,0,0,0,1.042-1.9l.176-.844A3.6,3.6,0,0,1,121.074.176,2.8,2.8,0,0,1,119.531-.3a2.913,2.913,0,0,1-1.015-1.31,5.354,5.354,0,0,1-.4-1.912A9.825,9.825,0,0,1,118.174-4.772Zm1.538.9a3.345,3.345,0,0,0,.435,1.944,1.644,1.644,0,0,0,1.393.724,2.881,2.881,0,0,0,2.452-1.4l.747-4.363a2,2,0,0,0-1.907-1.352,2.468,2.468,0,0,0-2.123,1.053,5.488,5.488,0,0,0-.98,2.941ZM5.177,18.176a4.155,4.155,0,0,1-3.146-1.27,4.714,4.714,0,0,1-1.213-3.4v-.3a5.707,5.707,0,0,1,.541-2.527A4.217,4.217,0,0,1,2.87,8.943a3.8,3.8,0,0,1,2.1-.628A3.562,3.562,0,0,1,7.857,9.536a5.289,5.289,0,0,1,1.028,3.5v.677H2.443a3.38,3.38,0,0,0,.822,2.272,2.583,2.583,0,0,0,2,.866A2.832,2.832,0,0,0,6.724,16.5a3.666,3.666,0,0,0,1.046-.932l.993.773A3.993,3.993,0,0,1,5.177,18.176Zm-.2-8.525a2.169,2.169,0,0,0-1.652.716A3.482,3.482,0,0,0,2.5,12.375H7.26v-.123a3.1,3.1,0,0,0-.668-1.92A2.042,2.042,0,0,0,4.975,9.65ZM12.3,8.49l.044,1.055a3.512,3.512,0,0,1,2.821-1.23,2.719,2.719,0,0,1,2.716,1.529,3.6,3.6,0,0,1,1.235-1.107,3.647,3.647,0,0,1,1.8-.422q3.129,0,3.182,3.313V18H22.465V11.725A2.184,2.184,0,0,0,22,10.2a2.051,2.051,0,0,0-1.564-.505,2.156,2.156,0,0,0-1.5.541,2.193,2.193,0,0,0-.694,1.455V18H16.6V11.769a1.814,1.814,0,0,0-2.03-2.074,2.175,2.175,0,0,0-2.188,1.362V18H10.758V8.49Zm22.3,4.86a5.654,5.654,0,0,1-1,3.5A3.2,3.2,0,0,1,30.9,18.176,3.315,3.315,0,0,1,28.116,16.9L28.037,18H26.543V4.5h1.626V9.536a3.3,3.3,0,0,1,2.716-1.222,3.221,3.221,0,0,1,2.72,1.31,5.824,5.824,0,0,1,.989,3.586Zm-1.626-.185a4.394,4.394,0,0,0-.642-2.566,2.124,2.124,0,0,0-1.846-.905,2.387,2.387,0,0,0-2.312,1.494V15.3A2.454,2.454,0,0,0,30.5,16.8a2.112,2.112,0,0,0,1.819-.905A4.672,4.672,0,0,0,32.968,13.166ZM42.513,18a3.416,3.416,0,0,1-.229-1,3.628,3.628,0,0,1-2.707,1.178,3.357,3.357,0,0,1-2.307-.8,2.573,2.573,0,0,1-.9-2.017A2.688,2.688,0,0,1,37.5,13.056a5.325,5.325,0,0,1,3.177-.822h1.582v-.747a1.826,1.826,0,0,0-.51-1.358,2.049,2.049,0,0,0-1.5-.505,2.371,2.371,0,0,0-1.459.439,1.3,1.3,0,0,0-.589,1.063H36.563a2.244,2.244,0,0,1,.505-1.375A3.449,3.449,0,0,1,38.439,8.7a4.613,4.613,0,0,1,1.9-.387,3.759,3.759,0,0,1,2.575.822,2.964,2.964,0,0,1,.967,2.263v4.377a5.351,5.351,0,0,0,.334,2.083V18Zm-2.7-1.239a2.858,2.858,0,0,0,1.45-.4,2.392,2.392,0,0,0,.993-1.028V13.386H40.983Q38,13.386,38,15.135a1.48,1.48,0,0,0,.51,1.2A1.959,1.959,0,0,0,39.814,16.761ZM48.2,18H46.573V4.5H48.2Zm8.473,0a3.416,3.416,0,0,1-.229-1,3.628,3.628,0,0,1-2.707,1.178,3.357,3.357,0,0,1-2.307-.8,2.573,2.573,0,0,1-.9-2.017,2.688,2.688,0,0,1,1.129-2.307,5.325,5.325,0,0,1,3.177-.822h1.582v-.747a1.826,1.826,0,0,0-.51-1.358,2.049,2.049,0,0,0-1.5-.505,2.371,2.371,0,0,0-1.459.439,1.3,1.3,0,0,0-.589,1.063H50.722a2.244,2.244,0,0,1,.505-1.375A3.449,3.449,0,0,1,52.6,8.7a4.613,4.613,0,0,1,1.9-.387,3.759,3.759,0,0,1,2.575.822,2.964,2.964,0,0,1,.967,2.263v4.377a5.351,5.351,0,0,0,.334,2.083V18Zm-2.7-1.239a2.858,2.858,0,0,0,1.45-.4,2.392,2.392,0,0,0,.993-1.028V13.386H55.143q-2.988,0-2.988,1.749a1.48,1.48,0,0,0,.51,1.2A1.959,1.959,0,0,0,53.974,16.761Zm8.3-8.271V19.1q0,2.742-2.487,2.742a3.034,3.034,0,0,1-.993-.157V20.391a3.144,3.144,0,0,0,.738.07,1.1,1.1,0,0,0,.831-.295,1.457,1.457,0,0,0,.286-1.025V8.49ZM60.478,5.968a.975.975,0,0,1,.242-.664.889.889,0,0,1,.708-.277.922.922,0,0,1,.721.272.96.96,0,0,1,.246.668.929.929,0,0,1-.246.659.938.938,0,0,1-.721.264.909.909,0,0,1-.712-.264A.949.949,0,0,1,60.478,5.968Zm8.358,12.208a4.155,4.155,0,0,1-3.146-1.27,4.714,4.714,0,0,1-1.213-3.4v-.3a5.707,5.707,0,0,1,.541-2.527,4.217,4.217,0,0,1,1.512-1.74,3.8,3.8,0,0,1,2.1-.628,3.562,3.562,0,0,1,2.883,1.222,5.289,5.289,0,0,1,1.028,3.5v.677H66.1a3.38,3.38,0,0,0,.822,2.272,2.583,2.583,0,0,0,2,.866,2.832,2.832,0,0,0,1.459-.352,3.666,3.666,0,0,0,1.046-.932l.993.773A3.993,3.993,0,0,1,68.836,18.176Zm-.2-8.525a2.169,2.169,0,0,0-1.652.716,3.482,3.482,0,0,0-.826,2.008h4.764v-.123a3.1,3.1,0,0,0-.668-1.92A2.042,2.042,0,0,0,68.634,9.65Z" transform="translate(339.36 1803.811)" fill="#1e168c"/>
    <path id="Trazado_141263" data-name="Trazado 141263" d="M44.11,346.1H174.64a25.51,25.51,0,0,0,25.51-25.51h0a25.51,25.51,0,0,0-25.51-25.5H44.11a25.51,25.51,0,0,0-25.51,25.5h0A25.51,25.51,0,0,0,44.11,346.1Z" transform="translate(300.93 1630.24)" fill="#eef3ff"/>
    <g id="Grupo-2" data-name="Grupo" transform="translate(300.93 1630.24)">
      <text id="Gestión_de_" data-name="Gestión de " transform="translate(47.04 321.1)" fill="#1e168c" font-size="18" font-family="Roboto-Regular, Roboto"><tspan x="0" y="0">Gestión de </tspan></text>
      <text id="es" transform="translate(47.04 339.1)" fill="#1e168c" font-size="18" font-family="Roboto-Regular, Roboto"><tspan x="0" y="0">es</tspan></text>
      <text id="t" transform="translate(65.86 339.1)" fill="#1e168c" font-size="18" font-family="Roboto-Regular, Roboto" letter-spacing="-0.01em"><tspan x="0" y="0">t</tspan></text>
      <text id="oques" transform="translate(71.56 339.1)" fill="#1e168c" font-size="18" font-family="Roboto-Regular, Roboto"><tspan x="0" y="0">oques</tspan></text>
    </g>
    <path id="Trazado_141264" data-name="Trazado 141264" d="M34.86,275.6H165.39a25.51,25.51,0,0,0,25.51-25.5h0a25.51,25.51,0,0,0-25.51-25.51H34.86A25.51,25.51,0,0,0,9.36,250.1h0a25.5,25.5,0,0,0,25.5,25.5Z" transform="translate(300.93 1630.24)" fill="#eef3ff"/>
    <path id="Trazado_144547" data-name="Trazado 144547" d="M8.552-3.349H3.19L1.986,0H.246L5.133-12.8H6.609L11.5,0H9.773ZM3.7-4.729H8.051l-2.18-5.985ZM14.739,0H13.113V-13.5h1.626ZM18.87-9.51l.044,1.055a3.512,3.512,0,0,1,2.821-1.23,2.719,2.719,0,0,1,2.716,1.529,3.6,3.6,0,0,1,1.235-1.107,3.647,3.647,0,0,1,1.8-.422q3.129,0,3.182,3.313V0H29.039V-6.275A2.184,2.184,0,0,0,28.573-7.8a2.051,2.051,0,0,0-1.564-.505,2.156,2.156,0,0,0-1.5.541,2.193,2.193,0,0,0-.694,1.455V0H23.177V-6.231a1.814,1.814,0,0,0-2.03-2.074,2.175,2.175,0,0,0-2.188,1.362V0H17.332V-9.51ZM38.988,0a3.416,3.416,0,0,1-.229-1A3.628,3.628,0,0,1,36.053.176a3.357,3.357,0,0,1-2.307-.8,2.573,2.573,0,0,1-.9-2.017,2.688,2.688,0,0,1,1.129-2.307,5.325,5.325,0,0,1,3.177-.822h1.582v-.747a1.826,1.826,0,0,0-.51-1.358,2.049,2.049,0,0,0-1.5-.505,2.371,2.371,0,0,0-1.459.439,1.3,1.3,0,0,0-.589,1.063H33.038a2.244,2.244,0,0,1,.505-1.375A3.449,3.449,0,0,1,34.915-9.3a4.613,4.613,0,0,1,1.9-.387,3.759,3.759,0,0,1,2.575.822A2.964,2.964,0,0,1,40.359-6.6v4.377a5.351,5.351,0,0,0,.334,2.083V0Zm-2.7-1.239a2.858,2.858,0,0,0,1.45-.4,2.392,2.392,0,0,0,.993-1.028V-4.614H37.459q-2.988,0-2.988,1.749a1.48,1.48,0,0,0,.51,1.2A1.959,1.959,0,0,0,36.29-1.239Zm10.433.088a2.342,2.342,0,0,0,1.521-.527A1.855,1.855,0,0,0,48.964-3H50.5a2.949,2.949,0,0,1-.562,1.556A3.7,3.7,0,0,1,48.555-.264a3.994,3.994,0,0,1-1.833.439,3.918,3.918,0,0,1-3.089-1.3,5.163,5.163,0,0,1-1.147-3.546v-.272A5.725,5.725,0,0,1,43-7.409a3.883,3.883,0,0,1,1.463-1.679,4.157,4.157,0,0,1,2.254-.6,3.814,3.814,0,0,1,2.659.958A3.424,3.424,0,0,1,50.5-6.24H48.964a2.241,2.241,0,0,0-.7-1.516,2.174,2.174,0,0,0-1.551-.593,2.276,2.276,0,0,0-1.92.892,4.19,4.19,0,0,0-.681,2.58v.308a4.106,4.106,0,0,0,.677,2.531A2.287,2.287,0,0,0,46.723-1.151ZM56.276.176a4.155,4.155,0,0,1-3.146-1.27,4.714,4.714,0,0,1-1.213-3.4v-.3a5.707,5.707,0,0,1,.541-2.527,4.217,4.217,0,0,1,1.512-1.74,3.8,3.8,0,0,1,2.1-.628,3.562,3.562,0,0,1,2.883,1.222,5.289,5.289,0,0,1,1.028,3.5v.677H53.543a3.38,3.38,0,0,0,.822,2.272,2.583,2.583,0,0,0,2,.866A2.832,2.832,0,0,0,57.823-1.5a3.666,3.666,0,0,0,1.046-.932l.993.773A3.993,3.993,0,0,1,56.276.176Zm-.2-8.525a2.169,2.169,0,0,0-1.652.716A3.482,3.482,0,0,0,53.6-5.625h4.764v-.123a3.1,3.1,0,0,0-.668-1.92A2.042,2.042,0,0,0,56.074-8.35ZM63.4-9.51l.053,1.2A3.465,3.465,0,0,1,66.3-9.686q3.015,0,3.041,3.4V0H67.72V-6.293a2.189,2.189,0,0,0-.47-1.521,1.884,1.884,0,0,0-1.437-.492,2.347,2.347,0,0,0-1.389.422,2.865,2.865,0,0,0-.932,1.107V0H61.866V-9.51ZM77.669,0a3.416,3.416,0,0,1-.229-1A3.628,3.628,0,0,1,74.733.176a3.357,3.357,0,0,1-2.307-.8,2.573,2.573,0,0,1-.9-2.017,2.688,2.688,0,0,1,1.129-2.307,5.325,5.325,0,0,1,3.177-.822h1.582v-.747a1.826,1.826,0,0,0-.51-1.358,2.049,2.049,0,0,0-1.5-.505,2.371,2.371,0,0,0-1.459.439,1.3,1.3,0,0,0-.589,1.063H71.719a2.244,2.244,0,0,1,.505-1.375A3.449,3.449,0,0,1,73.6-9.3a4.613,4.613,0,0,1,1.9-.387,3.759,3.759,0,0,1,2.575.822A2.964,2.964,0,0,1,79.04-6.6v4.377a5.351,5.351,0,0,0,.334,2.083V0Zm-2.7-1.239a2.858,2.858,0,0,0,1.45-.4,2.392,2.392,0,0,0,.993-1.028V-4.614H76.14q-2.988,0-2.988,1.749a1.48,1.48,0,0,0,.51,1.2A1.959,1.959,0,0,0,74.971-1.239Zm8.3-8.271V1.1q0,2.742-2.487,2.742a3.034,3.034,0,0,1-.993-.157V2.391a3.144,3.144,0,0,0,.738.07,1.1,1.1,0,0,0,.831-.295,1.457,1.457,0,0,0,.286-1.025V-9.51Zm-1.793-2.522a.975.975,0,0,1,.242-.664.889.889,0,0,1,.708-.277.922.922,0,0,1,.721.272.96.96,0,0,1,.246.668.929.929,0,0,1-.246.659.938.938,0,0,1-.721.264.909.909,0,0,1-.712-.264A.949.949,0,0,1,81.475-12.032ZM89.833.176a4.155,4.155,0,0,1-3.146-1.27,4.714,4.714,0,0,1-1.213-3.4v-.3a5.707,5.707,0,0,1,.541-2.527,4.217,4.217,0,0,1,1.512-1.74,3.8,3.8,0,0,1,2.1-.628,3.562,3.562,0,0,1,2.883,1.222,5.289,5.289,0,0,1,1.028,3.5v.677H87.1a3.38,3.38,0,0,0,.822,2.272,2.583,2.583,0,0,0,2,.866A2.832,2.832,0,0,0,91.38-1.5a3.666,3.666,0,0,0,1.046-.932l.993.773A3.993,3.993,0,0,1,89.833.176Zm-.2-8.525a2.169,2.169,0,0,0-1.652.716,3.482,3.482,0,0,0-.826,2.008h4.764v-.123a3.1,3.1,0,0,0-.668-1.92A2.042,2.042,0,0,0,89.631-8.35Z" transform="translate(349.24 1889.15)" fill="#1e168c"/>
    <path id="Trazado_141265" data-name="Trazado 141265" d="M106.5,423H237a25.5,25.5,0,0,0,25.5-25.51h0A25.5,25.5,0,0,0,237,372H106.5A25.51,25.51,0,0,0,81,397.48h0A25.51,25.51,0,0,0,106.5,423Z" transform="translate(300.93 1630.24)" fill="#eef3ff"/>
    <path id="Trazado_144544" data-name="Trazado 144544" d="M8.552-3.349H3.19L1.986,0H.246L5.133-12.8H6.609L11.5,0H9.773ZM3.7-4.729H8.051l-2.18-5.985Zm17.323.079a5.654,5.654,0,0,1-1,3.5A3.2,3.2,0,0,1,17.332.176,3.315,3.315,0,0,1,14.546-1.1L14.467,0H12.973V-13.5H14.6v5.036a3.3,3.3,0,0,1,2.716-1.222,3.221,3.221,0,0,1,2.72,1.31,5.824,5.824,0,0,1,.989,3.586ZM19.4-4.834A4.394,4.394,0,0,0,18.756-7.4a2.124,2.124,0,0,0-1.846-.905A2.387,2.387,0,0,0,14.6-6.812V-2.7A2.454,2.454,0,0,0,16.928-1.2a2.112,2.112,0,0,0,1.819-.905A4.672,4.672,0,0,0,19.4-4.834ZM28.942,0a3.416,3.416,0,0,1-.229-1A3.628,3.628,0,0,1,26.007.176,3.357,3.357,0,0,1,23.7-.62a2.573,2.573,0,0,1-.9-2.017,2.688,2.688,0,0,1,1.129-2.307,5.325,5.325,0,0,1,3.177-.822h1.582v-.747a1.826,1.826,0,0,0-.51-1.358,2.049,2.049,0,0,0-1.5-.505,2.371,2.371,0,0,0-1.459.439,1.3,1.3,0,0,0-.589,1.063H22.992A2.244,2.244,0,0,1,23.5-8.249,3.449,3.449,0,0,1,24.869-9.3a4.613,4.613,0,0,1,1.9-.387,3.759,3.759,0,0,1,2.575.822A2.964,2.964,0,0,1,30.313-6.6v4.377a5.351,5.351,0,0,0,.334,2.083V0Zm-2.7-1.239a2.858,2.858,0,0,0,1.45-.4,2.392,2.392,0,0,0,.993-1.028V-4.614H27.413q-2.988,0-2.988,1.749a1.48,1.48,0,0,0,.51,1.2A1.959,1.959,0,0,0,26.244-1.239ZM38.4-2.522a1.2,1.2,0,0,0-.5-1.024,4.78,4.78,0,0,0-1.731-.628,8.186,8.186,0,0,1-1.96-.633,2.788,2.788,0,0,1-1.072-.879A2.1,2.1,0,0,1,32.792-6.9a2.467,2.467,0,0,1,.989-1.978,3.861,3.861,0,0,1,2.527-.809,3.974,3.974,0,0,1,2.624.835,2.652,2.652,0,0,1,1.006,2.136H38.3a1.468,1.468,0,0,0-.567-1.151,2.124,2.124,0,0,0-1.428-.483,2.223,2.223,0,0,0-1.389.387,1.217,1.217,0,0,0-.5,1.011.986.986,0,0,0,.466.888,5.731,5.731,0,0,0,1.683.571,8.77,8.77,0,0,1,1.973.65,2.878,2.878,0,0,1,1.121.91,2.237,2.237,0,0,1,.365,1.3,2.434,2.434,0,0,1-1.02,2.043A4.277,4.277,0,0,1,36.36.176a4.789,4.789,0,0,1-2.021-.4,3.288,3.288,0,0,1-1.375-1.129,2.722,2.722,0,0,1-.5-1.569h1.626a1.683,1.683,0,0,0,.655,1.3,2.54,2.54,0,0,0,1.613.479,2.622,2.622,0,0,0,1.481-.374A1.148,1.148,0,0,0,38.4-2.522Zm5.95-9.29v2.3h1.775v1.257H44.35v5.9a1.32,1.32,0,0,0,.237.858A1,1,0,0,0,45.4-1.2a3.937,3.937,0,0,0,.773-.105V0a4.742,4.742,0,0,1-1.248.175,2.025,2.025,0,0,1-1.644-.659,2.832,2.832,0,0,1-.554-1.872v-5.9H40.992V-9.51h1.731v-2.3ZM51.97.176a4.155,4.155,0,0,1-3.146-1.27,4.714,4.714,0,0,1-1.213-3.4v-.3a5.707,5.707,0,0,1,.541-2.527,4.217,4.217,0,0,1,1.512-1.74,3.8,3.8,0,0,1,2.1-.628A3.562,3.562,0,0,1,54.65-8.464a5.289,5.289,0,0,1,1.028,3.5v.677H49.236a3.38,3.38,0,0,0,.822,2.272,2.583,2.583,0,0,0,2,.866A2.832,2.832,0,0,0,53.517-1.5a3.666,3.666,0,0,0,1.046-.932l.993.773A3.993,3.993,0,0,1,51.97.176Zm-.2-8.525a2.169,2.169,0,0,0-1.652.716,3.482,3.482,0,0,0-.826,2.008h4.764v-.123a3.1,3.1,0,0,0-.668-1.92A2.042,2.042,0,0,0,51.768-8.35Zm9.606,7.2a2.342,2.342,0,0,0,1.521-.527A1.855,1.855,0,0,0,63.615-3h1.538a2.949,2.949,0,0,1-.562,1.556A3.7,3.7,0,0,1,63.207-.264a3.994,3.994,0,0,1-1.833.439,3.918,3.918,0,0,1-3.089-1.3,5.163,5.163,0,0,1-1.147-3.546v-.272a5.725,5.725,0,0,1,.51-2.47,3.883,3.883,0,0,1,1.463-1.679,4.157,4.157,0,0,1,2.254-.6,3.814,3.814,0,0,1,2.659.958A3.424,3.424,0,0,1,65.153-6.24H63.615a2.241,2.241,0,0,0-.7-1.516,2.174,2.174,0,0,0-1.551-.593,2.276,2.276,0,0,0-1.92.892,4.19,4.19,0,0,0-.681,2.58v.308a4.106,4.106,0,0,0,.677,2.531A2.287,2.287,0,0,0,61.374-1.151ZM68.748,0H67.122V-9.51h1.626ZM66.99-12.032a.971.971,0,0,1,.242-.668.907.907,0,0,1,.716-.272.922.922,0,0,1,.721.272.96.96,0,0,1,.246.668.929.929,0,0,1-.246.659.938.938,0,0,1-.721.264.924.924,0,0,1-.716-.264A.938.938,0,0,1,66.99-12.032ZM72.879-9.51l.044,1.055a3.512,3.512,0,0,1,2.821-1.23A2.719,2.719,0,0,1,78.46-8.156a3.6,3.6,0,0,1,1.235-1.107,3.647,3.647,0,0,1,1.8-.422q3.129,0,3.182,3.313V0H83.048V-6.275A2.184,2.184,0,0,0,82.582-7.8a2.051,2.051,0,0,0-1.564-.505,2.156,2.156,0,0,0-1.5.541,2.193,2.193,0,0,0-.694,1.455V0H77.186V-6.231a1.814,1.814,0,0,0-2.03-2.074,2.175,2.175,0,0,0-2.188,1.362V0H71.341V-9.51ZM88.893,0H87.267V-9.51h1.626ZM87.135-12.032a.971.971,0,0,1,.242-.668.907.907,0,0,1,.716-.272.922.922,0,0,1,.721.272.96.96,0,0,1,.246.668.929.929,0,0,1-.246.659.938.938,0,0,1-.721.264.924.924,0,0,1-.716-.264A.938.938,0,0,1,87.135-12.032ZM95.44.176a4.155,4.155,0,0,1-3.146-1.27,4.714,4.714,0,0,1-1.213-3.4v-.3a5.707,5.707,0,0,1,.541-2.527,4.217,4.217,0,0,1,1.512-1.74,3.8,3.8,0,0,1,2.1-.628,3.562,3.562,0,0,1,2.883,1.222,5.289,5.289,0,0,1,1.028,3.5v.677H92.707a3.38,3.38,0,0,0,.822,2.272,2.583,2.583,0,0,0,2,.866A2.832,2.832,0,0,0,96.987-1.5a3.666,3.666,0,0,0,1.046-.932l.993.773A3.993,3.993,0,0,1,95.44.176Zm-.2-8.525a2.169,2.169,0,0,0-1.652.716,3.482,3.482,0,0,0-.826,2.008h4.764v-.123a3.1,3.1,0,0,0-.668-1.92A2.042,2.042,0,0,0,95.238-8.35Zm7.33-1.16.053,1.2a3.465,3.465,0,0,1,2.848-1.371q3.015,0,3.041,3.4V0h-1.626V-6.293a2.189,2.189,0,0,0-.47-1.521,1.884,1.884,0,0,0-1.437-.492,2.347,2.347,0,0,0-1.389.422,2.865,2.865,0,0,0-.932,1.107V0H101.03V-9.51Zm10.6-2.3v2.3h1.775v1.257h-1.775v5.9a1.32,1.32,0,0,0,.237.858,1,1,0,0,0,.809.286,3.937,3.937,0,0,0,.773-.105V0a4.742,4.742,0,0,1-1.248.175A2.025,2.025,0,0,1,112.1-.483a2.832,2.832,0,0,1-.554-1.872v-5.9h-1.731V-9.51h1.731v-2.3Zm2.887,6.97a5.617,5.617,0,0,1,.549-2.514,4.1,4.1,0,0,1,1.529-1.723,4.163,4.163,0,0,1,2.237-.606,4.01,4.01,0,0,1,3.142,1.345,5.174,5.174,0,0,1,1.2,3.577v.114a5.666,5.666,0,0,1-.532,2.492A4.038,4.038,0,0,1,122.66-.439a4.211,4.211,0,0,1-2.272.615,4,4,0,0,1-3.133-1.345,5.147,5.147,0,0,1-1.2-3.56Zm1.635.193a4.068,4.068,0,0,0,.734,2.54,2.349,2.349,0,0,0,1.964.958,2.335,2.335,0,0,0,1.969-.971,4.449,4.449,0,0,0,.729-2.72,4.061,4.061,0,0,0-.743-2.536,2.361,2.361,0,0,0-1.973-.971,2.335,2.335,0,0,0-1.942.958A4.416,4.416,0,0,0,117.69-4.649Z" transform="translate(409.01 2032.62)" fill="#1e168c"/>
    <path id="Trazado_144513" data-name="Trazado 144513" d="M148.44,0A148.44,148.44,0,1,1,0,148.44,148.44,148.44,0,0,1,148.44,0Z" transform="translate(637.73 1727.59)" fill="#1e168c"/>
    <path id="Trazado_144514" data-name="Trazado 144514" d="M143.14,0A143.14,143.14,0,1,1,0,143.14,143.14,143.14,0,0,1,143.14,0Z" transform="translate(642.98 1732.891)" fill="#7d97f4"/>
    <path id="Trazado_141266" data-name="Trazado 141266" d="M582,242.79a97.979,97.979,0,1,0-98.04,98,97.69,97.69,0,0,0,98.04-98Z" transform="translate(300.93 1630.24)" fill="url(#radial-gradient)"/>
    <path id="Trazado_141267" data-name="Trazado 141267" d="M582,246.07a98,98,0,1,0-80.377,96.359A97.66,97.66,0,0,0,582,246.07Z" transform="translate(300.93 1630.24)" fill="url(#radial-gradient-2)"/>
    <path id="Trazado_141268" data-name="Trazado 141268" d="M560.05,246.11a74.855,74.855,0,1,1,0-.01Z" transform="translate(300.93 1630.24)" fill="#fff"/>
    <path id="Trazado_141269" data-name="Trazado 141269" d="M560.05,246.11a74.54,74.54,0,1,0-21.823,53.05,74.85,74.85,0,0,0,21.823-53.05Z" transform="translate(300.93 1630.24)" fill="url(#radial-gradient-3)"/>
    <path id="Trazado_141270" data-name="Trazado 141270" d="M552.48,213.28A74.87,74.87,0,0,1,423.6,287.83a74.63,74.63,0,0,0,128.88-74.55Z" transform="translate(300.93 1630.24)" fill="#edeef0"/>
    <g id="Grupo-3" data-name="Grupo" transform="translate(300.93 1630.24)">
      <text id="Logística_" data-name="Logística " transform="translate(438.18 236.16)" fill="#87868a" font-size="23.11" font-family="Roboto-Regular, Roboto"><tspan x="0" y="0">Logística </tspan></text>
      <text id="Interna" transform="translate(449.21 263.89)" fill="#87868a" font-size="23.11" font-family="Roboto-Regular, Roboto"><tspan x="0" y="0">Interna</tspan></text>
    </g>
    <path id="Trazado_141271" data-name="Trazado 141271" d="M441.62,60.66a10.21,10.21,0,1,0,10.21-10.21,10.21,10.21,0,0,0-10.21,10.21Z" transform="translate(300.93 1630.24)" fill="#fff"/>
    <path id="Trazado_141272" data-name="Trazado 141272" d="M451.83,60.66,418.22,27.05H362.44" transform="translate(300.93 1630.24)" fill="none" stroke="#df6f63" stroke-linecap="round" stroke-linejoin="round" stroke-width="2"/>
    <path id="Trazado_144522" data-name="Trazado 144522" d="M6.06,0A6.06,6.06,0,1,1,0,6.06,6.06,6.06,0,0,1,6.06,0Z" transform="translate(746.7 1684.84)" fill="url(#linear-gradient-3)"/>
    <path id="Trazado_141273" data-name="Trazado 141273" d="M361.23,51H260.78c-10.83,0-19.62-11.42-19.62-25.5h0C241.16,11.42,250,0,260.78,0H361.23c10.84,0,19.62,11.42,19.62,25.51h0C380.85,39.59,372.07,51,361.23,51Z" transform="translate(300.93 1630.24)" fill="#eef3ff"/>
    <path id="Trazado_141274" data-name="Trazado 141274" d="M529.68,60.66a10.21,10.21,0,1,1-10.21-10.21A10.21,10.21,0,0,1,529.68,60.66Z" transform="translate(300.93 1630.24)" fill="#fff"/>
    <path id="Trazado_141275" data-name="Trazado 141275" d="M519.47,60.66l33.61-33.61h55.78" transform="translate(300.93 1630.24)" fill="none" stroke="#df6f63" stroke-linecap="round" stroke-linejoin="round" stroke-width="2"/>
    <path id="Trazado_144521" data-name="Trazado 144521" d="M6.06,0A6.06,6.06,0,1,1,0,6.06,6.06,6.06,0,0,1,6.06,0Z" transform="translate(814.34 1684.84)" fill="url(#linear-gradient-13)"/>
    <path id="Trazado_141276" data-name="Trazado 141276" d="M610.08,51H710.52c10.84,0,19.63-11.42,19.63-25.5h0c0-14.08-8.79-25.5-19.63-25.5H610.08c-10.84,0-19.63,11.42-19.63,25.51h0C590.45,39.59,599.24,51,610.08,51Z" transform="translate(300.93 1630.24)" fill="#eef3ff"/>
    <path id="Trazado_144532" data-name="Trazado 144532" d="M3.173-5.01V0H1.485V-12.8h4.72A4.742,4.742,0,0,1,9.5-11.725a3.635,3.635,0,0,1,1.191,2.839,3.587,3.587,0,0,1-1.165,2.87A4.954,4.954,0,0,1,6.188-5.01Zm0-1.38H6.205a3.032,3.032,0,0,0,2.074-.638A2.334,2.334,0,0,0,9-8.873,2.411,2.411,0,0,0,8.279-10.7,2.84,2.84,0,0,0,6.3-11.417H3.173ZM22.254-4.061a4.708,4.708,0,0,1-1.5,3.133A4.911,4.911,0,0,1,17.4.176,4.509,4.509,0,0,1,13.768-1.45,6.542,6.542,0,0,1,12.4-5.8v-1.23a7.291,7.291,0,0,1,.637-3.138,4.76,4.76,0,0,1,1.806-2.079,5.029,5.029,0,0,1,2.707-.725,4.624,4.624,0,0,1,3.27,1.138,4.765,4.765,0,0,1,1.433,3.151h-1.7a3.677,3.677,0,0,0-.954-2.222,2.885,2.885,0,0,0-2.052-.688,3.019,3.019,0,0,0-2.536,1.2,5.492,5.492,0,0,0-.918,3.4v1.24a5.645,5.645,0,0,0,.87,3.316A2.812,2.812,0,0,0,17.4-1.2a3.247,3.247,0,0,0,2.158-.637,3.536,3.536,0,0,0,1-2.219ZM26.736-12.8,30.92-2.355,35.1-12.8h2.188V0H35.6V-4.983l.158-5.379L31.562,0H30.27L26.077-10.336l.167,5.353V0H24.557V-12.8Z" transform="translate(593.15 1661.33)" fill="#1e168c"/>
    <path id="Trazado_144510" data-name="Trazado 144510" d="M3.173-5.01V0H1.485V-12.8h4.72A4.742,4.742,0,0,1,9.5-11.725a3.635,3.635,0,0,1,1.191,2.839,3.587,3.587,0,0,1-1.165,2.87A4.954,4.954,0,0,1,6.188-5.01Zm0-1.38H6.205a3.032,3.032,0,0,0,2.074-.638A2.334,2.334,0,0,0,9-8.873,2.411,2.411,0,0,0,8.279-10.7,2.84,2.84,0,0,0,6.3-11.417H3.173ZM22.254-4.061a4.708,4.708,0,0,1-1.5,3.133A4.911,4.911,0,0,1,17.4.176,4.509,4.509,0,0,1,13.768-1.45,6.542,6.542,0,0,1,12.4-5.8v-1.23a7.291,7.291,0,0,1,.637-3.138,4.76,4.76,0,0,1,1.806-2.079,5.029,5.029,0,0,1,2.707-.725,4.624,4.624,0,0,1,3.27,1.138,4.765,4.765,0,0,1,1.433,3.151h-1.7a3.677,3.677,0,0,0-.954-2.222,2.885,2.885,0,0,0-2.052-.688,3.019,3.019,0,0,0-2.536,1.2,5.492,5.492,0,0,0-.918,3.4v1.24a5.645,5.645,0,0,0,.87,3.316A2.812,2.812,0,0,0,17.4-1.2a3.247,3.247,0,0,0,2.158-.637,3.536,3.536,0,0,0,1-2.219Zm3.99-.949V0H24.557V-12.8h4.72a4.742,4.742,0,0,1,3.292,1.072,3.635,3.635,0,0,1,1.191,2.839,3.587,3.587,0,0,1-1.165,2.87A4.954,4.954,0,0,1,29.259-5.01Zm0-1.38h3.032a3.032,3.032,0,0,0,2.074-.638,2.334,2.334,0,0,0,.721-1.845,2.411,2.411,0,0,0-.721-1.831,2.84,2.84,0,0,0-1.978-.713H26.244Z" transform="translate(942.48 1661.33)" fill="#1e168c"/>
    <path id="Trazado_141277" data-name="Trazado 141277" d="M490,449.17a10.21,10.21,0,1,0-14.44-.32,10.21,10.21,0,0,0,14.44.32Z" transform="translate(300.93 1630.24)" fill="#fff"/>
    <path id="Trazado_144542" data-name="Trazado 144542" d="M1.05,0,0,47.52" transform="translate(782.77 2072.03)" fill="none" stroke="#df6f63" stroke-linecap="round" stroke-width="2"/>
    <path id="Trazado_144540" data-name="Trazado 144540" d="M6.06,0A6.06,6.06,0,1,1,0,6.06,6.06,6.06,0,0,1,6.06,0Z" transform="translate(777.76 2065.971)" fill="url(#linear-gradient-14)"/>
    <path id="Trazado_141278" data-name="Trazado 141278" d="M441,514.82H541.42c10.84,0,19.63-11.42,19.63-25.51h0c0-14.09-8.79-25.51-19.63-25.51H441c-10.84,0-19.63,11.42-19.63,25.51h0C421.35,503.4,430.14,514.82,441,514.82Z" transform="translate(300.93 1630.24)" fill="#eef3ff"/>
    <g id="Grupo-4" data-name="Grupo" transform="translate(300.93 1630.24)">
      <text id="A" transform="translate(438.12 487.76)" fill="#1e168c" font-size="18" font-family="Roboto-Regular, Roboto" letter-spacing="-0.01em"><tspan x="0" y="0">A</tspan></text>
      <text id="tención_al_" data-name="tención al " transform="translate(449.71 487.76)" fill="#1e168c" font-size="18" font-family="Roboto-Regular, Roboto"><tspan x="0" y="0">tención al </tspan></text>
      <text id="cliente" transform="translate(456.37 505.76)" fill="#1e168c" font-size="18" font-family="Roboto-Regular, Roboto"><tspan x="0" y="0">cliente</tspan></text>
    </g>
  </g>
</svg>
